<?xml version="1.0" encoding="UTF-8"?>
<!DOCTYPE svg PUBLIC "-//W3C//DTD SVG 1.1//EN" "http://www.w3.org/Graphics/SVG/1.1/DTD/svg11.dtd">
<!-- Creator: CorelDRAW X8 -->
<svg xmlns="http://www.w3.org/2000/svg" xml:space="preserve" width="95px" height="87px" version="1.1" style="shape-rendering:geometricPrecision; text-rendering:geometricPrecision; image-rendering:optimizeQuality; fill-rule:evenodd; clip-rule:evenodd"
viewBox="0 0 3279 2996"
 xmlns:xlink="http://www.w3.org/1999/xlink">
 <defs>
  <style type="text/css">
   <![CDATA[
    .fil0 {fill:#FEFEFE;fill-rule:nonzero}
   ]]>
  </style>
 </defs>
 <g id="Camada_x0020_1">
  <metadata id="CorelCorpID_0Corel-Layer"/>
  <g id="_2716596090912">
   <path class="fil0" d="M1326 0l649 0c51,0 98,21 132,55 33,33 54,80 54,131l0 650c0,51 -21,98 -54,131 -34,34 -81,55 -132,55l-649 0c-52,0 -98,-21 -132,-55 -34,-33 -55,-80 -55,-131l0 -650c0,-51 21,-98 55,-131 34,-34 80,-55 132,-55zm649 46l-649 0c-39,0 -74,16 -99,41 -25,26 -41,61 -41,99l0 650c0,38 16,73 41,99 25,25 60,41 99,41l649 0c39,0 74,-16 99,-41 25,-26 41,-61 41,-99l0 -650c0,-38 -16,-73 -41,-99 -25,-25 -60,-41 -99,-41z"/>
   <path class="fil0" d="M1326 2092l649 0c39,0 74,-16 99,-41 25,-26 41,-61 41,-99l0 -650c0,-38 -16,-73 -41,-99 -25,-25 -60,-41 -99,-41l-649 0c-39,0 -74,16 -99,41 -25,26 -41,61 -41,99l0 650c0,38 16,73 41,99 25,25 60,41 99,41zm649 46l-649 0c-52,0 -98,-21 -132,-55 -34,-33 -55,-80 -55,-131l0 -650c0,-51 21,-98 55,-131 34,-34 80,-55 132,-55l649 0c51,0 98,21 132,55 33,33 54,80 54,131l0 650c0,51 -21,98 -54,131 -34,34 -81,55 -132,55z"/>
   <path class="fil0" d="M211 2092l649 0c39,0 74,-16 99,-41 25,-26 41,-61 41,-99l0 -650c0,-38 -16,-73 -41,-99 -25,-25 -60,-41 -99,-41l-649 0c-39,0 -74,16 -99,41 -25,26 -41,61 -41,99l0 650c0,38 16,73 41,99 25,25 60,41 99,41zm649 46l-649 0c-52,0 -98,-21 -132,-55 -34,-33 -55,-80 -55,-131l0 -650c0,-51 21,-98 55,-131 34,-34 80,-55 132,-55l649 0c51,0 98,21 132,55 33,33 54,80 54,131l0 650c0,51 -21,98 -54,131 -34,34 -81,55 -132,55z"/>
   <path class="fil0" d="M2431 2092l650 0c38,0 73,-16 99,-41 25,-26 41,-61 41,-99l0 -650c0,-38 -16,-73 -41,-99 -26,-25 -61,-41 -99,-41l-650 0c-38,0 -73,16 -98,41 -26,26 -42,61 -42,99l0 650c0,38 16,73 42,99 25,25 60,41 98,41zm650 46l-650 0c-51,0 -98,-21 -131,-55 -34,-33 -55,-80 -55,-131l0 -650c0,-51 21,-98 55,-131 33,-34 80,-55 131,-55l650 0c51,0 98,21 131,55 34,33 55,80 55,131l0 650c0,51 -21,98 -55,131 -33,34 -80,55 -131,55z"/>
   <path class="fil0" d="M627 1765c-23,19 -45,33 -66,41 -22,8 -45,12 -69,12 -40,0 -71,-9 -93,-29 -22,-20 -33,-45 -33,-75 0,-18 4,-35 13,-49 8,-15 19,-27 32,-36 13,-9 28,-16 45,-20 12,-4 30,-7 55,-10 50,-6 87,-13 111,-21 0,-9 0,-14 0,-16 0,-26 -5,-43 -17,-54 -16,-14 -40,-21 -71,-21 -30,0 -51,6 -65,16 -14,10 -24,28 -31,54l-61 -8c6,-26 15,-47 27,-63 13,-16 31,-29 55,-37 24,-9 52,-13 84,-13 31,0 57,3 77,11 19,7 34,16 43,28 9,11 15,25 19,42 2,11 3,30 3,57l0 83c0,57 2,94 4,109 3,16 8,30 15,45l-65 0c-6,-13 -10,-29 -12,-46zm-5 -138c-22,9 -56,17 -101,23 -26,4 -44,8 -55,12 -11,5 -19,12 -24,20 -6,9 -9,19 -9,30 0,16 6,30 19,41 12,11 31,17 55,17 24,0 45,-6 64,-16 19,-11 32,-25 41,-43 7,-14 10,-34 10,-62l0 -22z"/>
   <path class="fil0" d="M1510 694l-111 -367 65 0 58 212 21 79c1,-4 7,-29 19,-76l58 -215 64 0 55 213 18 70 21 -70 64 -213 60 0 -115 367 -64 0 -59 -219 -14 -63 -75 282 -65 0z"/>
   <path class="fil0" d="M1498 1701l62 -10c3,25 13,44 28,57 16,13 38,19 67,19 28,0 50,-5 63,-17 14,-12 21,-25 21,-41 0,-14 -6,-25 -18,-33 -9,-6 -30,-13 -64,-21 -46,-12 -77,-21 -95,-30 -17,-8 -31,-20 -40,-35 -9,-14 -13,-31 -13,-49 0,-16 3,-31 11,-45 7,-14 17,-26 30,-35 10,-7 23,-13 40,-18 17,-5 34,-7 53,-7 29,0 54,4 76,12 22,8 38,20 48,34 11,14 18,33 22,57l-61 8c-3,-19 -11,-34 -24,-44 -13,-11 -32,-16 -56,-16 -28,0 -49,4 -61,14 -12,9 -18,20 -18,33 0,8 2,15 7,22 5,6 13,12 24,16 6,3 24,8 55,16 44,12 74,21 92,29 17,7 31,18 41,32 10,15 15,32 15,54 0,20 -6,40 -18,58 -12,18 -30,32 -53,42 -23,10 -48,15 -77,15 -48,0 -84,-10 -109,-29 -25,-20 -41,-49 -48,-88z"/>
   <path class="fil0" d="M2857 1876l0 -46c-23,36 -57,54 -102,54 -30,0 -56,-8 -81,-24 -24,-16 -43,-39 -57,-67 -13,-29 -20,-62 -20,-100 0,-36 6,-70 18,-99 12,-30 31,-53 55,-69 24,-16 52,-24 82,-24 22,0 42,5 59,15 17,9 31,21 42,36l0 -182 62 0 0 506 -58 0zm-196 -183c0,47 9,82 29,105 20,24 44,35 71,35 27,0 50,-11 69,-33 19,-22 29,-56 29,-102 0,-50 -10,-86 -29,-110 -20,-23 -44,-35 -72,-35 -28,0 -51,11 -70,34 -18,22 -27,58 -27,106z"/>
   <path class="fil0" d="M165 2275l2949 0c46,0 87,18 117,48 29,30 48,71 48,116l0 392c0,45 -19,87 -48,116 -30,30 -71,49 -117,49l-2949 0c-46,0 -87,-19 -117,-49 -29,-29 -48,-71 -48,-116l0 -392c0,-45 19,-86 48,-116 30,-30 71,-48 117,-48zm2949 46l-2949 0c-33,0 -63,13 -84,35 -21,21 -35,51 -35,83l0 392c0,33 14,62 35,84 21,21 51,34 84,34l2949 0c33,0 62,-13 84,-34 21,-22 35,-51 35,-84l0 -392c0,-32 -14,-62 -35,-83 -22,-22 -51,-35 -84,-35z"/>
   <path class="fil0" d="M1059 2768l-53 0 0 -200 49 0 0 28c9,-13 16,-22 23,-26 7,-4 14,-6 23,-6 12,0 24,3 35,10l-17 46c-8,-6 -17,-9 -24,-9 -8,0 -14,2 -19,6 -5,4 -10,12 -12,22 -3,11 -5,33 -5,67l0 62zm215 -63l53 9c-6,19 -17,34 -32,44 -14,10 -33,15 -55,15 -35,0 -60,-11 -77,-34 -13,-18 -20,-41 -20,-69 0,-33 9,-59 26,-78 18,-19 39,-28 66,-28 30,0 53,10 70,29 17,20 26,50 25,91l-132 0c0,15 4,28 12,36 9,9 19,13 31,13 8,0 15,-2 21,-6 5,-5 9,-12 12,-22zm3 -54c0,-15 -4,-27 -11,-35 -8,-8 -17,-12 -28,-12 -11,0 -21,4 -28,13 -8,8 -12,20 -11,34l78 0zm77 61l54 -8c2,10 6,18 13,23 7,5 17,8 29,8 14,0 24,-2 31,-8 5,-3 7,-8 7,-14 0,-4 -1,-7 -4,-10 -2,-2 -8,-5 -17,-7 -43,-9 -70,-18 -82,-26 -15,-10 -23,-25 -23,-45 0,-17 7,-32 20,-44 14,-11 35,-17 64,-17 27,0 48,4 61,13 13,9 22,22 27,40l-49 9c-2,-8 -7,-14 -12,-18 -6,-4 -15,-6 -26,-6 -14,0 -24,2 -30,6 -4,3 -6,6 -6,11 0,3 1,7 5,9 5,4 21,9 50,15 28,7 48,14 59,24 11,9 16,22 16,39 0,18 -7,34 -23,47 -15,14 -38,20 -68,20 -27,0 -49,-5 -64,-16 -16,-11 -27,-26 -32,-45zm350 -7l52 9c-6,19 -17,34 -32,44 -14,10 -33,15 -55,15 -34,0 -60,-11 -77,-34 -13,-18 -20,-41 -20,-69 0,-33 9,-59 26,-78 18,-19 40,-28 66,-28 30,0 53,10 70,29 18,20 26,50 25,91l-132 0c0,15 4,28 13,36 8,9 18,13 30,13 8,0 15,-2 21,-6 5,-5 10,-12 13,-22zm3 -54c-1,-15 -5,-27 -12,-35 -8,-8 -17,-12 -28,-12 -11,0 -21,4 -28,13 -8,8 -11,20 -11,34l79 0zm187 -83l0 42 -36 0 0 81c0,17 0,26 1,29 0,3 2,5 4,7 3,1 6,2 9,2 5,0 12,-1 22,-5l4 41c-12,6 -26,8 -42,8 -9,0 -18,-1 -25,-5 -8,-3 -14,-7 -17,-12 -4,-5 -6,-12 -8,-21 -1,-6 -1,-19 -1,-37l0 -88 -25 0 0 -42 25 0 0 -40 53 -31 0 71 36 0zm76 62l-48 -9c6,-19 15,-34 28,-43 13,-10 33,-14 59,-14 24,0 41,2 53,8 11,6 19,13 24,21 5,9 7,25 7,48l-1 61c0,18 1,31 3,39 2,9 5,18 9,27l-52 0c-1,-3 -3,-8 -5,-15 -1,-3 -2,-5 -2,-6 -9,8 -19,15 -29,19 -10,5 -21,7 -33,7 -20,0 -37,-5 -48,-17 -12,-11 -18,-25 -18,-42 0,-11 3,-21 8,-30 5,-9 13,-16 23,-20 9,-5 23,-9 42,-13 24,-4 42,-9 51,-13l0 -5c0,-10 -2,-18 -7,-22 -5,-5 -15,-7 -29,-7 -9,0 -17,2 -22,6 -5,4 -10,10 -13,20zm71 43c-7,2 -17,4 -32,8 -15,3 -24,6 -29,9 -7,5 -10,11 -10,18 0,8 3,14 8,20 6,5 13,8 21,8 10,0 19,-3 27,-10 7,-4 11,-10 13,-17 1,-5 2,-13 2,-26l0 -10zm155 95l-53 0 0 -200 49 0 0 28c8,-13 16,-22 23,-26 7,-4 14,-6 23,-6 12,0 23,3 35,10l-17 46c-9,-6 -17,-9 -25,-9 -7,0 -13,2 -18,6 -6,4 -10,12 -13,22 -3,11 -4,33 -4,67l0 62z"/>
  </g>
 </g>
</svg>
