<?xml version="1.0" encoding="UTF-8"?>
<!DOCTYPE svg PUBLIC "-//W3C//DTD SVG 1.1//EN" "http://www.w3.org/Graphics/SVG/1.1/DTD/svg11.dtd">
<!-- Creator: CorelDRAW X8 -->
<svg xmlns="http://www.w3.org/2000/svg" xml:space="preserve" width="164px" height="67px" version="1.1" style="shape-rendering:geometricPrecision; text-rendering:geometricPrecision; image-rendering:optimizeQuality; fill-rule:evenodd; clip-rule:evenodd"
viewBox="0 0 4332 1766"
 xmlns:xlink="http://www.w3.org/1999/xlink">
 <defs>
  <style type="text/css">
   <![CDATA[
    .fil1 {fill:#FEFEFE}
    .fil0 {fill:#FEFEFE;fill-rule:nonzero}
   ]]>
  </style>
 </defs>
 <g id="Camada_x0020_1">
  <metadata id="CorelCorpID_0Corel-Layer"/>
  <g id="_2716596074048">
   <path class="fil0" d="M1390 1077l0 -120 22 0 0 120 -22 0zm112 -65c9,13 16,24 21,33l1 0c-1,-16 -1,-27 -1,-34l0 -54 21 0 0 120 -22 0 -39 -56c-7,-9 -14,-20 -22,-33l0 0c1,15 1,26 1,34l0 55 -22 0 0 -120 23 0 39 55zm129 30c0,-3 0,-5 -2,-7 -1,-2 -3,-4 -6,-5 -2,-1 -5,-2 -8,-3 -4,-1 -7,-1 -10,-2 -5,-1 -9,-2 -14,-4 -4,-1 -8,-3 -11,-6 -3,-2 -5,-5 -7,-9 -2,-4 -3,-9 -3,-14 0,-7 1,-12 3,-17 2,-5 5,-8 9,-12 4,-3 8,-5 13,-6 5,-2 11,-3 18,-3 6,0 12,1 19,2 6,1 12,3 16,5l0 19c-6,-3 -12,-4 -18,-5 -5,-2 -11,-2 -16,-2 -7,0 -12,1 -16,4 -4,2 -6,6 -6,12 0,3 1,5 2,7 1,2 3,4 5,5 2,1 5,2 8,3 3,1 6,2 9,2 5,1 10,3 14,4 5,1 9,3 12,6 4,2 7,6 9,10 2,4 3,9 3,15 0,7 -1,12 -4,17 -2,5 -5,9 -10,12 -4,3 -9,5 -16,7 -6,1 -13,2 -20,2 -7,0 -13,-1 -19,-2 -7,-1 -12,-3 -16,-6l0 -18c6,2 12,4 17,5 6,2 12,2 18,2 3,0 6,0 10,-1 3,0 6,-1 9,-3 2,-1 4,-3 6,-5 2,-3 2,-5 2,-9zm96 35l-22 0 0 -102 -38 0 0 -18 98 0 0 18 -38 0 0 102zm55 0l0 -120 22 0 0 120 -22 0zm99 0l-21 0 0 -102 -39 0 0 -18 99 0 0 18 -39 0 0 102zm105 2c-6,0 -12,-1 -17,-2 -5,-1 -9,-3 -13,-5 -4,-3 -7,-5 -10,-9 -2,-3 -5,-7 -6,-11 -1,-3 -2,-7 -3,-11 0,-4 -1,-9 -1,-14l0 -70 22 0 0 68c0,9 1,15 3,20 2,5 6,9 10,12 4,2 9,3 15,3 6,0 11,-1 16,-3 4,-3 7,-7 9,-12 2,-5 3,-11 3,-20l0 -68 22 0 0 70c0,5 0,10 0,14 -1,4 -2,8 -3,11 -2,4 -4,8 -7,11 -2,4 -6,6 -10,9 -4,2 -8,4 -13,5 -5,1 -11,2 -17,2zm127 -2l-22 0 0 -102 -38 0 0 -18 99 0 0 18 -39 0 0 102z"/>
   <path class="fil0" d="M2252 1017c0,-8 -1,-14 -2,-20 -2,-5 -5,-10 -8,-13 -3,-4 -7,-7 -11,-8 -4,-2 -9,-3 -14,-3 -5,0 -10,1 -14,3 -5,1 -9,4 -12,8 -3,3 -5,8 -7,13 -2,6 -3,12 -3,20 0,7 1,13 3,19 2,5 4,10 7,13 3,4 7,7 12,8 4,2 9,3 14,3 5,0 10,-1 14,-3 4,-1 8,-4 11,-8 3,-3 6,-8 8,-13 1,-6 2,-12 2,-19zm23 0c0,9 -1,17 -4,25 -3,7 -6,14 -11,19 -5,6 -11,10 -19,13 -7,3 -15,5 -24,5 -9,0 -18,-2 -25,-5 -7,-3 -13,-7 -18,-13 -5,-5 -9,-12 -11,-19 -3,-8 -4,-16 -4,-25 0,-10 1,-18 4,-26 2,-7 6,-14 11,-19 5,-6 11,-10 18,-13 7,-3 16,-5 25,-5 9,0 17,2 24,5 8,3 14,7 19,13 5,5 8,12 11,19 3,8 4,16 4,26zm82 60l-22 0 0 -120 76 0 0 18 -54 0 0 31 47 0 0 18 -47 0 0 53zm95 -19l59 0 0 19 -80 0 0 -120 77 0 0 18 -56 0 0 31 48 0 0 18 -48 0 0 34zm82 19l0 -120 32 0c2,0 5,0 8,0 3,0 6,0 9,1 2,0 5,1 8,1 2,1 4,1 7,2 6,2 12,5 16,8 5,4 9,8 13,12 3,5 5,10 7,16 2,6 3,12 3,19 0,7 -1,13 -2,18 -2,6 -4,11 -7,16 -3,4 -7,9 -11,12 -4,4 -10,7 -16,9 -5,2 -10,3 -17,4 -6,1 -14,2 -22,2l-28 0zm31 -19c13,0 23,-2 30,-5 6,-3 11,-8 14,-14 4,-6 5,-14 5,-23 0,-5 0,-9 -1,-13 -1,-4 -3,-8 -5,-11 -2,-3 -4,-6 -7,-8 -3,-2 -6,-4 -10,-5 -3,-1 -7,-2 -11,-3 -5,-1 -9,-1 -14,-1l-10 0 0 83 9 0zm117 0l58 0 0 19 -80 0 0 -120 77 0 0 18 -55 0 0 31 47 0 0 18 -47 0 0 34zm170 -65c0,8 -3,15 -7,21 -5,6 -12,10 -22,13l0 0 36 50 -26 0 -33 -47 -15 0 0 47 -22 0 0 -120 37 0c6,0 11,0 16,1 6,0 10,1 14,3 7,2 12,7 16,12 4,5 6,12 6,20zm-56 19c5,0 9,0 13,-1 3,0 6,-1 8,-2 5,-2 8,-4 10,-7 1,-3 2,-6 2,-10 0,-3 -1,-6 -2,-8 -1,-3 -3,-5 -7,-6 -2,-1 -4,-2 -7,-2 -4,-1 -8,-1 -12,-1l-16 0 0 37 11 0zm150 34l-45 0 -11 31 -24 0 48 -120 20 0 47 120 -23 0 -12 -31zm-22 -60c-5,12 -8,22 -12,31l-4 11 31 0 -4 -11c-3,-9 -7,-19 -11,-31l0 0zm96 -29l0 101 56 0 0 19 -78 0 0 -120 22 0zm114 120l0 -120 31 0c3,0 6,0 9,0 3,0 5,0 8,1 3,0 5,1 8,1 3,1 5,1 7,2 6,2 12,5 17,8 5,4 9,8 12,12 3,5 6,10 8,16 1,6 2,12 2,19 0,7 -1,13 -2,18 -1,6 -4,11 -7,16 -2,4 -6,9 -11,12 -4,4 -9,7 -15,9 -5,2 -11,3 -17,4 -7,1 -14,2 -22,2l-28 0zm30 -19c13,0 23,-2 30,-5 7,-3 12,-8 15,-14 3,-6 5,-14 5,-23 0,-5 -1,-9 -2,-13 -1,-4 -3,-8 -5,-11 -2,-3 -4,-6 -7,-8 -3,-2 -6,-4 -10,-5 -3,-1 -7,-2 -11,-3 -4,-1 -9,-1 -14,-1l-10 0 0 83 9 0zm117 0l59 0 0 19 -81 0 0 -120 78 0 0 18 -56 0 0 31 48 0 0 18 -48 0 0 34z"/>
   <path class="fil0" d="M1412 1282l58 0 0 19 -80 0 0 -120 77 0 0 18 -55 0 0 31 47 0 0 18 -47 0 0 34zm81 19l0 -120 32 0c3,0 6,0 8,0 3,0 6,0 9,1 3,0 5,1 8,1 2,1 5,1 7,2 6,2 12,5 17,8 5,4 9,8 12,12 3,5 6,10 7,16 2,6 3,12 3,19 0,7 -1,13 -2,18 -2,6 -4,11 -7,16 -3,4 -6,9 -11,12 -4,4 -9,7 -15,9 -5,2 -11,3 -18,4 -6,1 -13,2 -21,2l-29 0zm31 -19c13,0 23,-2 30,-5 7,-3 11,-8 15,-14 3,-6 5,-14 5,-23 0,-5 -1,-9 -2,-13 -1,-4 -3,-8 -5,-11 -2,-3 -4,-5 -7,-8 -3,-2 -6,-4 -10,-5 -3,-1 -7,-2 -11,-3 -4,-1 -9,-1 -14,-1l-10 0 0 83 9 0zm145 21c-7,0 -12,-1 -17,-2 -5,-1 -10,-3 -13,-5 -4,-3 -8,-5 -10,-9 -3,-3 -5,-7 -7,-11 -1,-3 -2,-7 -2,-11 -1,-4 -1,-9 -1,-14l0 -70 22 0 0 68c0,9 1,15 3,20 2,6 5,9 10,12 4,2 9,3 15,3 6,0 11,-1 15,-3 4,-3 8,-6 10,-12 2,-5 3,-11 3,-20l0 -68 22 0 0 70c0,5 0,10 -1,14 0,4 -1,8 -3,11 -1,4 -4,8 -6,11 -3,4 -6,6 -10,9 -4,2 -8,4 -14,5 -5,1 -10,2 -16,2zm136 -106c-6,0 -11,1 -16,3 -5,2 -10,5 -13,8 -4,4 -7,9 -9,14 -2,6 -3,12 -3,19 0,7 1,14 3,19 2,5 4,10 8,13 3,4 8,7 12,9 5,1 11,2 17,2 5,0 9,0 14,-1 5,0 9,-1 13,-3l0 19c-4,1 -8,2 -13,3 -5,0 -10,1 -15,1 -10,0 -19,-2 -27,-5 -7,-2 -14,-7 -19,-12 -5,-5 -9,-11 -12,-19 -2,-7 -3,-15 -3,-24 0,-9 1,-18 4,-26 2,-8 6,-14 12,-20 5,-6 11,-10 19,-14 8,-3 17,-5 27,-5 5,0 10,1 14,1 5,1 9,2 12,3l0 19c-4,-2 -9,-3 -13,-3 -4,-1 -8,-1 -12,-1zm117 73l-45 0 -12 31 -23 0 47 -120 20 0 47 120 -23 0 -11 -31zm-23 -60c-4,12 -8,22 -11,31l-4 11 31 0 -4 -11c-3,-9 -7,-19 -12,-31l0 0z"/>
   <path class="fil0" d="M2011 1301c-8,-1 -14,-4 -20,-7 -5,-4 -10,-8 -14,-13 -3,-5 -6,-11 -8,-17 -2,-7 -3,-14 -3,-21 0,-9 2,-18 4,-26 3,-8 7,-14 13,-20 5,-6 11,-10 19,-14 8,-3 17,-5 26,-5 6,0 10,1 15,1 4,1 8,2 12,3l0 19c-5,-2 -9,-3 -13,-3 -5,-1 -9,-1 -12,-1 -6,0 -12,1 -17,3 -5,2 -9,5 -13,8 -3,4 -6,9 -8,14 -2,6 -3,12 -3,19 0,7 1,14 3,19 1,5 4,10 8,13 3,4 7,7 12,9 5,1 11,2 17,2 5,0 10,0 14,-1 5,-1 9,-2 13,-3l0 19c-4,1 -9,2 -13,3 -5,0 -10,1 -15,1 -1,0 -2,0 -3,0 -1,0 -1,0 -1,0l-3 8c3,0 5,1 7,2 2,1 4,2 5,3 2,1 3,3 4,4 1,2 1,4 1,6 0,3 -1,5 -2,7 -1,2 -3,4 -5,6 -2,2 -5,3 -9,4 -3,1 -7,1 -12,1 -2,0 -4,0 -7,0 -2,0 -4,-1 -5,-1l0 -13c1,0 3,0 5,1 3,0 5,0 6,0 3,0 5,0 6,0 2,-1 3,-1 4,-2 1,0 1,-1 2,-2 0,0 0,-1 0,-2 0,-1 -1,-3 -4,-4 -2,-1 -6,-1 -12,-1l6 -19zm136 -31l-46 0 -11 31 -23 0 47 -120 20 0 47 120 -23 0 -11 -31zm-23 -60c-4,12 -8,22 -11,31l-5 11 32 0 -5 -11c-3,-9 -7,-19 -11,-31l0 0zm-13 -58c2,0 4,0 7,1 2,1 4,2 6,3 2,1 4,2 6,3 2,1 3,1 4,1 2,0 3,0 4,-1 1,-1 1,-3 1,-6l14 0c0,1 0,2 0,3 0,2 0,4 -1,7 0,2 -1,4 -2,6 -2,2 -3,3 -6,4 -2,1 -4,2 -7,2 -2,0 -5,-1 -7,-1 -2,-1 -4,-2 -6,-3 -2,-1 -4,-2 -6,-3 -2,-1 -3,-1 -5,-1 -1,0 -2,0 -3,1 -1,1 -1,3 -1,6l-14 0c0,-1 0,-2 0,-3 0,-2 0,-5 1,-7 0,-2 1,-4 2,-6 1,-2 3,-3 5,-4 2,-1 5,-2 8,-2z"/>
   <path class="fil0" d="M2285 1241c0,-8 -1,-14 -3,-20 -2,-5 -4,-10 -7,-13 -4,-4 -7,-7 -12,-8 -4,-2 -9,-3 -14,-3 -5,0 -10,1 -14,3 -4,1 -8,4 -11,8 -3,3 -6,8 -8,13 -1,6 -2,12 -2,20 0,7 1,13 2,19 2,5 5,10 8,13 3,4 7,7 11,9 4,1 9,2 14,2 5,0 10,-1 14,-2 5,-2 8,-5 12,-9 3,-3 5,-8 7,-13 2,-6 3,-12 3,-19zm22 0c0,9 -1,17 -4,25 -2,7 -6,14 -11,19 -5,6 -11,10 -18,13 -7,3 -16,5 -25,5 -9,0 -17,-2 -25,-5 -7,-3 -13,-7 -18,-13 -5,-5 -9,-12 -11,-19 -3,-8 -4,-16 -4,-25 0,-10 1,-18 4,-26 2,-7 6,-14 11,-19 5,-6 11,-10 18,-13 8,-3 16,-5 25,-5 9,0 18,2 25,5 7,3 13,7 18,13 5,5 9,12 11,19 3,8 4,16 4,26z"/>
   <polygon class="fil0" points="2330,1277 2354,1277 2335,1337 2312,1337 "/>
   <path class="fil0" d="M2472 1197c-6,0 -11,1 -16,3 -5,2 -10,5 -13,8 -4,4 -7,9 -9,14 -2,6 -3,12 -3,19 0,7 1,14 3,19 2,5 5,10 8,13 4,4 8,7 13,9 5,1 10,2 17,2 4,0 9,0 13,-1 5,0 9,-1 14,-3l0 19c-5,1 -9,2 -14,3 -5,0 -10,1 -15,1 -10,0 -19,-2 -26,-5 -8,-2 -15,-7 -20,-12 -5,-5 -9,-11 -11,-19 -3,-7 -4,-15 -4,-24 0,-9 1,-18 4,-26 3,-8 7,-14 12,-20 5,-6 12,-10 19,-14 8,-3 17,-5 27,-5 5,0 10,1 14,1 5,1 9,2 13,3l0 19c-5,-2 -10,-3 -14,-3 -4,-1 -8,-1 -12,-1zm49 104l0 -120 22 0 0 120 -22 0zm72 -19l59 0 0 19 -81 0 0 -120 77 0 0 18 -55 0 0 31 48 0 0 18 -48 0 0 34zm8 -130l19 0 19 22 -19 0 -9 -11 -1 0 -10 11 -18 0 19 -22zm136 84c8,13 15,24 21,33l0 0c-1,-16 -1,-27 -1,-34l0 -54 22 0 0 120 -23 0 -39 -56c-7,-9 -14,-20 -21,-33l-1 0c1,15 2,26 2,34l0 55 -22 0 0 -120 23 0 39 55zm129 -39c-6,0 -12,1 -17,3 -5,2 -9,5 -13,8 -3,4 -6,9 -8,14 -2,6 -3,12 -3,19 0,7 1,14 2,19 2,5 5,10 8,13 4,4 8,7 13,9 5,1 11,2 17,2 4,0 9,0 14,-1 4,0 9,-1 13,-3l0 19c-4,1 -9,2 -14,3 -4,0 -9,1 -15,1 -10,0 -19,-2 -26,-5 -8,-2 -14,-7 -19,-12 -6,-5 -9,-11 -12,-19 -3,-7 -4,-15 -4,-24 0,-9 1,-18 4,-26 3,-8 7,-14 12,-20 5,-6 12,-10 20,-14 8,-3 16,-5 26,-5 5,0 10,1 15,1 4,1 8,2 12,3l0 19c-5,-2 -9,-3 -13,-3 -5,-1 -9,-1 -12,-1zm48 104l0 -120 22 0 0 120 -22 0zm119 -31l-45 0 -12 31 -23 0 47 -120 20 0 47 120 -23 0 -11 -31zm-23 -60c-4,12 -8,22 -11,31l-4 11 31 0 -4 -11c-4,-9 -7,-19 -12,-31l0 0zm134 72l58 0 0 19 -80 0 0 -120 77 0 0 18 -55 0 0 31 47 0 0 18 -47 0 0 34z"/>
   <path class="fil0" d="M3299 1301l-22 0 0 -102 -38 0 0 -18 99 0 0 18 -39 0 0 102zm77 -19l59 0 0 19 -80 0 0 -120 77 0 0 18 -56 0 0 31 48 0 0 18 -48 0 0 34zm140 -85c-6,0 -11,1 -16,3 -5,2 -9,5 -13,8 -4,4 -6,9 -8,14 -2,6 -3,12 -3,19 0,7 0,14 2,19 2,5 5,10 8,13 4,4 8,7 13,9 5,1 10,2 17,2 4,0 9,0 13,-1 5,0 10,-1 14,-3l0 19c-4,1 -9,2 -14,3 -5,0 -10,1 -15,1 -10,0 -19,-2 -26,-5 -8,-2 -14,-7 -20,-12 -5,-5 -9,-11 -11,-19 -3,-7 -4,-15 -4,-24 0,-9 1,-18 4,-26 3,-8 7,-14 12,-20 5,-6 12,-10 20,-14 7,-3 16,-5 26,-5 5,0 10,1 14,1 5,1 9,2 13,3l0 19c-5,-2 -10,-3 -14,-3 -4,-1 -8,-1 -12,-1zm111 39c9,13 15,24 21,33l0 0c0,-16 -1,-27 -1,-34l0 -54 22 0 0 120 -23 0 -39 -56c-6,-9 -14,-20 -21,-33l0 0c0,15 1,26 1,34l0 55 -22 0 0 -120 23 0 39 55zm159 5c0,-8 -1,-14 -3,-20 -2,-5 -4,-10 -7,-13 -3,-4 -7,-7 -11,-8 -5,-2 -9,-3 -15,-3 -5,0 -10,1 -14,3 -4,1 -8,4 -11,8 -3,3 -6,8 -7,13 -2,6 -3,12 -3,20 0,7 1,13 3,19 1,5 4,10 7,13 3,4 7,7 11,9 4,1 9,2 14,2 6,0 10,-1 15,-2 4,-2 8,-5 11,-9 3,-3 5,-8 7,-13 2,-6 3,-12 3,-19zm22 0c0,9 -1,17 -3,25 -3,7 -7,14 -12,19 -5,6 -11,10 -18,13 -7,3 -15,5 -25,5 -9,0 -17,-2 -24,-5 -8,-3 -14,-7 -19,-13 -5,-5 -8,-12 -11,-19 -2,-8 -4,-16 -4,-25 0,-10 2,-18 4,-26 3,-7 6,-14 11,-19 5,-6 11,-10 19,-13 7,-3 15,-5 24,-5 10,0 18,2 25,5 7,3 13,7 18,13 5,5 9,12 12,19 2,8 3,16 3,26zm45 -60l0 101 56 0 0 19 -77 0 0 -120 21 0z"/>
   <path class="fil0" d="M4011 1241c0,-8 -1,-14 -3,-20 -2,-5 -4,-10 -7,-13 -3,-4 -7,-7 -11,-8 -5,-2 -10,-3 -15,-3 -5,0 -10,1 -14,3 -4,1 -8,4 -11,8 -3,3 -6,8 -8,13 -1,6 -2,12 -2,20 0,7 1,13 2,19 2,5 5,10 8,13 3,4 7,7 11,9 4,1 9,2 14,2 5,0 10,-1 15,-2 4,-2 8,-5 11,-9 3,-3 5,-8 7,-13 2,-6 3,-12 3,-19zm22 0c0,9 -1,17 -3,25 -3,7 -7,14 -12,19 -5,6 -11,10 -18,13 -7,3 -16,5 -25,5 -9,0 -17,-2 -24,-5 -8,-3 -14,-7 -19,-13 -5,-5 -8,-12 -11,-19 -3,-8 -4,-16 -4,-25 0,-10 1,-18 4,-26 3,-7 6,-14 11,-19 5,-6 11,-10 19,-13 7,-3 15,-5 24,-5 9,0 18,2 25,5 7,3 13,7 18,13 5,5 9,12 12,19 2,8 3,16 3,26zm98 14l-27 0 0 -19 48 0 0 61c-1,1 -4,1 -6,2 -3,1 -6,1 -10,2 -3,0 -7,1 -10,1 -4,1 -7,1 -11,1 -11,0 -20,-2 -28,-5 -8,-2 -15,-7 -20,-12 -5,-5 -9,-11 -12,-19 -3,-7 -4,-15 -4,-24 0,-6 1,-12 2,-17 2,-6 4,-11 6,-16 3,-5 6,-9 10,-13 4,-4 9,-7 14,-10 5,-3 10,-5 16,-6 6,-2 12,-3 19,-3 6,0 12,1 17,2 5,0 10,2 13,3l0 18c-4,-1 -9,-2 -14,-3 -4,-1 -9,-1 -14,-1 -7,0 -13,1 -18,3 -6,2 -11,5 -15,8 -4,4 -7,9 -10,14 -2,6 -3,12 -3,20 0,14 4,25 11,32 7,7 17,10 31,10 2,0 5,0 7,0 3,0 6,-1 8,-1l0 -28zm48 46l0 -120 22 0 0 120 -22 0zm119 -31l-45 0 -12 31 -23 0 47 -120 20 0 47 120 -23 0 -11 -31zm-23 -60c-4,12 -8,22 -11,31l-4 11 31 0 -4 -11c-4,-9 -7,-19 -12,-31l0 0z"/>
   <path class="fil0" d="M1428 1476l-19 0 0 36c0,5 -1,9 -3,11 -2,3 -5,4 -8,4 -3,0 -6,-1 -8,-3 -2,-3 -3,-7 -3,-12l0 -98c0,-5 1,-10 3,-12 3,-2 6,-4 11,-4l27 0c8,0 15,1 19,3 4,1 8,4 11,7 3,3 6,7 8,12 1,5 2,10 2,17 0,12 -3,22 -10,29 -7,7 -17,10 -30,10zm-5 -58l-14 0 0 39 14 0c5,0 9,-1 13,-2 3,-2 6,-4 8,-7 1,-2 2,-6 2,-11 0,-6 -1,-10 -4,-14 -3,-3 -9,-5 -19,-5zm133 0l-49 0 0 31 45 0c3,0 6,1 7,3 2,2 3,4 3,7 0,3 -1,5 -3,7 -1,2 -4,3 -7,3l-45 0 0 36 50 0c4,0 6,1 8,3 2,2 2,4 2,7 0,3 0,6 -2,8 -2,1 -4,2 -8,2l-58 0c-5,0 -8,-1 -10,-3 -2,-3 -3,-7 -3,-12l0 -96c0,-4 0,-7 1,-9 1,-2 3,-4 5,-5 1,-1 4,-2 7,-2l57 0c3,0 6,1 7,3 2,2 3,4 3,7 0,3 -1,6 -3,8 -1,1 -4,2 -7,2zm57 53l-7 0 0 41c0,5 -1,9 -3,12 -2,2 -5,3 -8,3 -3,0 -6,-1 -8,-4 -2,-2 -3,-6 -3,-11l0 -98c0,-5 1,-9 3,-12 3,-2 6,-4 10,-4l35 0c5,0 9,1 13,1 3,1 6,2 9,3 3,2 6,4 9,7 2,3 4,7 6,11 1,4 2,9 2,13 0,10 -3,17 -7,23 -5,6 -11,10 -20,12 3,2 7,6 11,11 3,4 6,10 9,15 3,5 5,10 6,14 2,5 2,8 2,9 0,2 0,3 -1,5 -1,2 -2,3 -4,4 -1,1 -3,1 -5,1 -2,0 -4,0 -6,-2 -2,-1 -3,-3 -4,-5 -1,-2 -3,-5 -5,-9l-9 -17c-3,-6 -5,-11 -8,-14 -2,-4 -5,-6 -7,-7 -3,-1 -6,-2 -10,-2zm13 -53l-20 0 0 35 19 0c5,0 9,-1 13,-2 3,-1 6,-3 8,-5 2,-3 3,-7 3,-11 0,-4 -1,-7 -2,-9 -2,-3 -4,-5 -7,-6 -2,-2 -7,-2 -14,-2zm93 -6l41 75 0 -76c0,-5 1,-9 3,-11 1,-2 4,-4 7,-4 3,0 5,2 7,4 2,2 3,6 3,11l0 100c0,11 -4,16 -12,16 -2,0 -3,0 -5,-1 -2,0 -3,-1 -4,-3 -2,-1 -3,-3 -4,-5 -1,-2 -2,-4 -4,-6l-40 -74 0 75c0,5 -1,8 -3,11 -1,2 -4,3 -7,3 -3,0 -5,-1 -7,-3 -2,-3 -3,-6 -3,-11l0 -98c0,-4 1,-8 1,-10 1,-2 3,-5 5,-6 2,-2 4,-3 7,-3 2,0 3,1 5,1 1,1 2,2 3,3 1,2 2,3 3,5 2,2 3,5 4,7z"/>
   <path class="fil0" d="M1869 1511l-5 -16 -43 0 -5 16c-2,7 -4,11 -5,13 -2,2 -4,3 -7,3 -3,0 -5,-1 -7,-3 -2,-2 -3,-5 -3,-8 0,-2 0,-4 0,-6 1,-1 2,-4 3,-7l27 -83c1,-2 2,-5 3,-8 1,-3 2,-6 3,-8 1,-3 3,-4 5,-6 2,-1 4,-2 7,-2 3,0 6,1 8,2 2,2 3,3 5,6 1,2 2,4 3,6 1,3 2,6 3,10l28 82c2,6 3,11 3,14 0,3 -1,5 -3,8 -2,2 -5,3 -8,3 -1,0 -3,0 -4,-1 -1,0 -2,-1 -3,-3 -1,-1 -2,-3 -3,-5 -1,-3 -1,-5 -2,-7zm-42 -35l31 0 -16 -53 -15 53zm116 30l-17 -81 0 88c0,5 -1,8 -2,11 -2,2 -5,3 -7,3 -3,0 -6,-1 -8,-3 -1,-3 -2,-6 -2,-11l0 -100c0,-6 1,-10 3,-12 3,-2 6,-3 10,-3l7 0c4,0 7,1 8,2 2,1 4,2 4,4 1,3 2,6 3,11l16 70 15 -70c1,-5 2,-8 3,-11 1,-2 2,-3 4,-4 2,-1 5,-2 9,-2l6 0c4,0 8,1 10,3 3,2 4,6 4,12l0 100c0,5 -1,8 -3,11 -2,2 -4,3 -7,3 -3,0 -5,-1 -7,-3 -2,-3 -3,-6 -3,-11l0 -88 -17 81c-1,5 -2,9 -3,12 0,2 -2,4 -3,6 -2,2 -5,3 -8,3 -3,0 -5,0 -7,-2 -1,-1 -3,-2 -4,-4 -1,-3 -1,-5 -2,-7 -1,-3 -1,-5 -2,-8zm133 19l-32 0c-5,0 -8,-1 -10,-3 -2,-3 -3,-7 -3,-12l0 -96c0,-5 1,-9 3,-12 2,-2 5,-4 10,-4l34 0c5,0 9,1 13,2 4,0 7,2 10,4 3,2 5,4 7,7 2,2 3,5 4,9 1,3 2,7 2,10 0,13 -6,22 -16,28 14,5 21,16 21,31 0,7 -2,14 -5,19 -3,6 -7,10 -12,13 -3,2 -7,3 -11,3 -5,1 -9,1 -15,1zm-2 -56l-22 0 0 37 23 0c15,0 22,-6 22,-19 0,-6 -2,-11 -6,-14 -4,-3 -9,-4 -17,-4zm-22 -51l0 33 20 0c5,0 9,-1 12,-2 3,-2 5,-4 7,-7 1,-3 2,-5 2,-8 0,-7 -2,-11 -6,-13 -4,-2 -10,-3 -18,-3l-17 0z"/>
   <path class="fil0" d="M2132 1473l0 -61c0,-5 1,-9 3,-12 1,-2 4,-4 7,-4 4,0 6,2 8,4 2,3 3,7 3,12l0 62c0,7 1,13 2,18 1,5 4,9 7,11 3,3 8,4 14,4 9,0 14,-3 18,-8 3,-5 5,-13 5,-24l0 -63c0,-5 1,-9 3,-12 2,-2 5,-4 8,-4 3,0 6,2 8,4 2,3 3,7 3,12l0 61c0,10 -1,18 -3,25 -1,6 -4,12 -9,17 -4,4 -8,8 -13,10 -5,1 -11,2 -18,2 -8,0 -15,-1 -21,-3 -6,-2 -11,-5 -15,-9 -3,-5 -6,-11 -8,-17 -2,-7 -2,-16 -2,-25zm202 12c0,4 -1,9 -2,13 -2,5 -5,10 -8,14 -4,5 -8,8 -14,11 -5,3 -12,4 -19,4 -6,0 -11,0 -16,-1 -4,-2 -8,-4 -12,-6 -4,-3 -7,-7 -10,-11 -3,-4 -5,-8 -7,-13 -2,-5 -4,-11 -5,-16 -1,-6 -1,-12 -1,-18 0,-10 1,-19 3,-27 3,-8 6,-15 11,-21 5,-6 10,-10 16,-13 6,-3 13,-5 20,-5 9,0 16,2 23,6 7,5 12,10 15,16 4,6 6,11 6,17 0,3 -1,5 -3,7 -2,3 -4,4 -6,4 -3,0 -5,-1 -6,-2 -2,-2 -3,-5 -5,-9 -3,-6 -6,-11 -10,-14 -4,-3 -8,-4 -14,-4 -9,0 -16,4 -21,12 -5,8 -8,19 -8,34 0,10 2,18 4,25 2,6 5,11 10,14 4,3 9,5 15,5 6,0 11,-2 15,-5 4,-4 8,-9 10,-17 1,-3 2,-6 3,-8 2,-2 4,-3 7,-3 2,0 4,1 6,3 2,2 3,5 3,8zm66 -89c11,0 20,3 28,8 8,6 14,13 18,23 4,10 6,21 6,35 0,10 -1,18 -3,26 -3,8 -6,15 -10,21 -5,6 -10,11 -17,14 -6,3 -13,4 -22,4 -8,0 -15,-1 -22,-4 -7,-4 -12,-8 -16,-14 -5,-6 -8,-13 -10,-21 -3,-8 -4,-17 -4,-26 0,-10 2,-19 4,-27 2,-8 6,-15 10,-21 4,-6 10,-10 16,-13 7,-3 14,-5 22,-5zm30 66c0,-10 -1,-18 -3,-25 -3,-6 -7,-12 -11,-15 -5,-4 -10,-5 -16,-5 -4,0 -8,1 -12,3 -4,2 -7,4 -9,8 -3,4 -5,8 -7,14 -1,6 -2,12 -2,20 0,7 1,13 2,19 2,6 4,11 7,15 3,3 6,6 9,8 4,2 8,3 12,3 6,0 11,-2 15,-5 5,-3 8,-8 11,-15 3,-7 4,-15 4,-25z"/>
   <path class="fil0" d="M1474 1686c0,4 -1,8 -2,12 -2,4 -4,8 -8,12 -3,4 -7,7 -12,9 -6,3 -12,4 -19,4 -5,0 -10,-1 -14,-2 -4,-1 -8,-2 -12,-5 -3,-2 -6,-5 -9,-9 -3,-3 -5,-7 -7,-12 -2,-4 -3,-8 -4,-13 -1,-5 -1,-10 -1,-16 0,-9 1,-17 3,-24 2,-7 6,-13 10,-18 4,-5 9,-8 15,-11 6,-3 12,-4 19,-4 8,0 15,2 21,5 7,4 11,8 15,14 3,5 5,10 5,14 0,3 -1,5 -3,7 -1,2 -3,3 -6,3 -2,0 -4,-1 -5,-2 -2,-1 -3,-4 -5,-7 -2,-5 -5,-9 -9,-12 -3,-3 -8,-4 -13,-4 -8,0 -15,3 -20,10 -5,7 -7,17 -7,30 0,8 1,16 3,21 2,6 5,10 9,13 4,3 9,4 14,4 6,0 11,-1 15,-4 4,-4 7,-8 9,-15 1,-2 2,-5 3,-7 2,-1 4,-2 6,-2 3,0 5,1 7,2 1,2 2,5 2,7zm64 25c-5,4 -9,7 -13,9 -5,2 -9,3 -14,3 -5,0 -9,-1 -13,-3 -4,-2 -6,-5 -8,-9 -2,-3 -3,-7 -3,-11 0,-6 1,-11 5,-15 3,-3 7,-6 13,-7 1,-1 4,-1 9,-3 4,-1 8,-2 12,-2 3,-1 6,-2 10,-4 0,-5 -1,-9 -3,-11 -1,-3 -5,-4 -10,-4 -5,0 -9,0 -11,2 -2,1 -4,4 -6,6 -2,3 -3,5 -4,6 0,1 -2,2 -4,2 -2,0 -4,-1 -6,-3 -1,-1 -2,-3 -2,-5 0,-4 1,-7 4,-11 2,-3 6,-6 10,-8 5,-2 11,-4 19,-4 8,0 14,1 19,4 4,2 8,5 10,10 2,4 3,10 3,18 0,5 0,9 -1,12 0,4 0,7 0,12 0,3 1,7 2,12 1,4 2,6 2,8 0,2 -1,4 -3,5 -2,2 -4,3 -6,3 -2,0 -4,-1 -6,-3 -1,-2 -3,-5 -5,-9zm-2 -29c-2,1 -6,2 -11,3 -6,1 -9,2 -11,3 -2,1 -4,2 -6,3 -2,2 -3,4 -3,7 0,3 2,6 4,8 2,2 5,4 8,4 4,0 7,-1 10,-3 3,-2 5,-4 7,-7 2,-3 2,-8 2,-15l0 -3zm99 1l0 27c0,4 -1,8 -3,10 -2,2 -4,3 -7,3 -3,0 -5,-1 -7,-3 -1,-2 -2,-6 -2,-10l0 -33c0,-5 0,-9 -1,-12 0,-3 -1,-5 -2,-7 -2,-2 -4,-2 -7,-2 -6,0 -10,2 -12,6 -2,5 -3,12 -3,20l0 28c0,4 -1,8 -2,10 -2,2 -4,3 -7,3 -3,0 -5,-1 -7,-3 -2,-2 -3,-6 -3,-10l0 -59c0,-3 1,-6 3,-8 1,-2 3,-3 6,-3 2,0 5,1 6,2 2,2 3,5 3,8l0 2c3,-4 6,-7 10,-9 4,-2 8,-3 12,-3 5,0 9,1 12,3 4,2 6,5 8,9 4,-4 7,-7 11,-9 3,-2 7,-3 11,-3 5,0 10,1 13,3 4,2 7,5 9,9 1,4 2,10 2,18l0 40c0,4 -1,8 -3,10 -1,2 -4,3 -7,3 -2,0 -5,-1 -6,-3 -2,-2 -3,-6 -3,-10l0 -34c0,-5 0,-8 -1,-11 0,-3 -1,-5 -2,-7 -2,-2 -4,-2 -7,-2 -3,0 -5,0 -7,2 -2,2 -4,4 -5,6 -2,4 -2,10 -2,19zm78 -32l0 3c4,-5 7,-9 11,-11 4,-2 8,-3 13,-3 5,0 11,1 15,5 5,3 9,8 12,14 2,6 4,14 4,22 0,6 -1,12 -3,17 -1,6 -3,10 -6,14 -3,3 -6,6 -10,8 -4,2 -8,3 -12,3 -6,0 -10,-1 -14,-4 -3,-2 -7,-5 -10,-10l0 31c0,9 -3,13 -9,13 -3,0 -6,-1 -7,-3 -1,-2 -1,-6 -1,-10l0 -89c0,-4 0,-7 2,-9 1,-1 4,-2 6,-2 3,0 5,1 7,3 1,2 2,4 2,8zm36 30c0,-5 0,-10 -2,-14 -1,-4 -3,-7 -6,-9 -3,-2 -6,-3 -9,-3 -5,0 -9,2 -13,7 -3,4 -5,11 -5,19 0,8 2,15 5,19 4,5 8,7 13,7 3,0 6,-1 9,-3 2,-2 4,-5 6,-9 2,-4 2,-8 2,-14zm82 30l0 -2c-3,3 -5,5 -7,8 -3,2 -5,3 -8,4 -3,1 -6,2 -10,2 -5,0 -9,-1 -12,-3 -4,-2 -6,-5 -8,-9 -3,-4 -4,-10 -4,-19l0 -40c0,-4 1,-7 3,-9 1,-2 4,-3 6,-3 3,0 5,1 7,3 2,2 3,5 3,9l0 33c0,4 0,8 1,12 0,3 2,5 4,7 1,2 4,3 7,3 3,0 6,-1 9,-3 3,-2 5,-5 6,-8 1,-3 2,-9 2,-19l0 -25c0,-4 0,-7 2,-9 2,-2 4,-3 7,-3 3,0 5,1 7,3 1,2 2,5 2,9l0 59c0,4 -1,7 -2,9 -2,2 -4,3 -7,3 -2,0 -4,-1 -6,-3 -1,-2 -2,-5 -2,-9zm95 -15c0,6 -1,11 -4,15 -2,4 -6,7 -11,9 -5,2 -10,3 -17,3 -7,0 -13,-1 -17,-3 -5,-3 -9,-5 -11,-9 -2,-3 -3,-7 -3,-10 0,-2 0,-4 2,-6 1,-1 3,-2 5,-2 2,0 4,0 5,1 1,1 2,3 3,5 2,3 4,6 7,8 2,2 6,3 10,3 4,0 7,-1 9,-3 3,-2 4,-4 4,-6 0,-4 -1,-7 -4,-8 -2,-2 -6,-3 -12,-5 -6,-2 -11,-4 -15,-5 -4,-2 -8,-5 -10,-8 -2,-3 -4,-7 -4,-12 0,-4 2,-8 4,-11 2,-4 5,-7 10,-9 4,-2 9,-3 15,-3 5,0 9,0 13,1 4,1 7,3 10,5 2,2 4,4 5,6 2,2 2,4 2,6 0,3 0,5 -2,6 -1,2 -3,2 -6,2 -2,0 -3,0 -5,-1 -1,-2 -2,-3 -4,-6 -2,-2 -3,-3 -5,-5 -2,-1 -5,-1 -8,-1 -3,0 -6,0 -8,2 -2,2 -3,4 -3,6 0,2 0,4 2,5 2,2 4,3 7,4 2,1 6,2 11,3 6,1 10,3 14,6 4,2 6,4 8,7 2,3 3,6 3,10zm142 -20l0 21c0,3 0,6 0,7 -1,2 -2,3 -3,5 -2,1 -3,2 -5,4 -6,3 -12,6 -18,8 -5,1 -11,2 -18,2 -7,0 -14,-1 -21,-4 -6,-3 -11,-6 -16,-11 -4,-5 -7,-11 -10,-18 -2,-7 -3,-15 -3,-24 0,-9 1,-16 3,-23 2,-8 6,-14 10,-19 5,-5 10,-8 17,-11 6,-3 13,-4 21,-4 7,0 13,1 18,3 5,2 9,5 13,8 3,3 5,6 7,9 1,3 2,6 2,9 0,3 -1,5 -3,7 -1,2 -4,3 -6,3 -2,0 -3,0 -4,-1 -2,-1 -3,-2 -4,-3 -2,-4 -4,-8 -6,-10 -2,-2 -4,-4 -7,-5 -3,-2 -7,-3 -11,-3 -5,0 -9,1 -13,3 -3,2 -6,4 -9,8 -3,3 -5,7 -6,12 -1,5 -2,11 -2,16 0,13 3,23 8,30 5,7 13,11 22,11 5,0 9,-1 13,-2 5,-2 9,-4 13,-6l0 -18 -16 0c-3,0 -6,-1 -8,-2 -2,-1 -3,-3 -3,-6 0,-3 1,-5 2,-6 2,-2 4,-3 7,-3l23 0c3,0 5,1 7,1 2,1 3,2 5,4 1,2 1,5 1,8zm65 35c-5,4 -9,7 -13,9 -4,2 -9,3 -14,3 -5,0 -9,-1 -13,-3 -3,-2 -6,-5 -8,-9 -2,-3 -3,-7 -3,-11 0,-6 2,-11 5,-15 3,-3 8,-6 13,-7 1,-1 4,-1 9,-3 5,-1 9,-2 12,-2 3,-1 7,-2 11,-4 -1,-5 -1,-9 -3,-11 -2,-3 -6,-4 -11,-4 -5,0 -8,0 -11,2 -2,1 -4,4 -6,6 -1,3 -3,5 -3,6 -1,1 -3,2 -5,2 -2,0 -4,-1 -5,-3 -2,-1 -2,-3 -2,-5 0,-4 1,-7 3,-11 2,-3 6,-6 11,-8 5,-2 11,-4 18,-4 8,0 14,1 19,4 5,2 8,5 10,10 2,4 3,10 3,18 0,5 0,9 0,12 0,4 0,7 0,12 0,3 0,7 1,12 2,4 2,6 2,8 0,2 -1,4 -2,5 -2,2 -4,3 -7,3 -1,0 -3,-1 -5,-3 -2,-2 -4,-5 -6,-9zm-1 -29c-3,1 -7,2 -12,3 -5,1 -9,2 -11,3 -2,1 -4,2 -6,3 -1,2 -2,4 -2,7 0,3 1,6 3,8 2,2 5,4 8,4 4,0 7,-1 10,-3 3,-2 6,-4 7,-7 2,-3 3,-8 3,-15l0 -3zm55 11l0 17c0,5 -1,8 -3,10 -1,2 -4,3 -6,3 -3,0 -5,-1 -7,-3 -2,-2 -3,-5 -3,-10l0 -57c0,-9 3,-13 9,-13 4,0 6,1 7,3 1,2 2,5 2,9 3,-4 5,-7 7,-9 2,-2 6,-3 9,-3 4,0 8,1 12,3 3,2 5,5 5,8 0,3 -1,5 -2,7 -2,1 -3,2 -5,2 -1,0 -2,0 -5,-1 -3,-1 -5,-2 -7,-2 -3,0 -5,1 -7,3 -1,1 -3,4 -4,7 -1,3 -1,6 -2,11 0,4 0,9 0,15z"/>
   <path class="fil0" d="M2273 1711c-5,4 -9,7 -13,9 -4,2 -9,3 -14,3 -5,0 -9,-1 -13,-3 -3,-2 -6,-5 -8,-9 -2,-3 -3,-7 -3,-11 0,-6 2,-11 5,-15 3,-3 7,-6 13,-7 1,-1 4,-1 9,-3 4,-1 8,-2 12,-2 3,-1 7,-2 10,-4 0,-5 -1,-9 -2,-11 -2,-3 -6,-4 -11,-4 -5,0 -8,0 -11,2 -2,1 -4,4 -6,6 -2,3 -3,5 -4,6 0,1 -2,2 -4,2 -2,0 -4,-1 -5,-3 -2,-1 -3,-3 -3,-5 0,-4 1,-7 4,-11 2,-3 6,-6 11,-8 4,-2 10,-4 18,-4 8,0 14,1 19,4 5,2 8,5 10,10 2,4 3,10 3,18 0,5 0,9 0,12 0,4 0,7 0,12 0,3 0,7 1,12 1,4 2,6 2,8 0,2 -1,4 -3,5 -1,2 -4,3 -6,3 -2,0 -4,-1 -5,-3 -2,-2 -4,-5 -6,-9zm-2 -29c-2,1 -6,2 -11,3 -5,1 -9,2 -11,3 -2,1 -4,2 -6,3 -2,2 -2,4 -2,7 0,3 1,6 3,8 2,2 5,4 8,4 4,0 7,-1 10,-3 3,-2 6,-4 7,-7 2,-3 2,-8 2,-15l0 -3zm54 -31l0 2c3,-4 7,-8 11,-10 4,-2 8,-3 13,-3 5,0 9,1 13,3 4,2 7,6 9,10 1,3 2,5 2,8 1,3 1,7 1,11l0 38c0,5 -1,8 -3,10 -1,2 -4,3 -6,3 -3,0 -5,-1 -7,-3 -2,-2 -3,-5 -3,-10l0 -34c0,-6 -1,-12 -2,-15 -2,-4 -5,-6 -10,-6 -4,0 -7,1 -9,4 -3,2 -5,5 -6,9 -1,3 -2,8 -2,17l0 25c0,5 -1,8 -2,10 -2,2 -4,3 -7,3 -3,0 -5,-1 -7,-3 -1,-2 -2,-5 -2,-10l0 -59c0,-4 1,-7 2,-9 2,-1 4,-2 6,-2 2,0 4,0 5,1 1,1 2,2 3,4 1,1 1,3 1,6zm85 -29l0 30c3,-3 5,-5 7,-7 2,-2 5,-3 8,-4 2,-1 5,-1 8,-1 5,0 9,1 13,3 3,2 6,5 8,9 2,3 3,6 3,9 0,3 1,6 1,10l0 39c0,5 -1,8 -3,10 -2,2 -4,3 -7,3 -6,0 -9,-4 -9,-13l0 -34c0,-7 -1,-12 -2,-15 -2,-4 -6,-6 -10,-6 -4,0 -7,1 -9,4 -3,2 -5,4 -6,8 -1,3 -2,9 -2,16l0 27c0,5 -1,8 -2,10 -2,2 -4,3 -7,3 -6,0 -9,-4 -9,-13l0 -88c0,-5 1,-8 2,-10 2,-2 4,-3 7,-3 3,0 5,1 7,3 1,2 2,5 2,10zm114 89l0 -2c-2,3 -5,5 -7,8 -2,2 -5,3 -8,4 -3,1 -6,2 -10,2 -4,0 -8,-1 -12,-3 -3,-2 -6,-5 -8,-9 -2,-4 -4,-10 -4,-19l0 -40c0,-4 1,-7 3,-9 2,-2 4,-3 7,-3 2,0 5,1 6,3 2,2 3,5 3,9l0 33c0,4 0,8 1,12 1,3 2,5 4,7 2,2 4,3 7,3 4,0 7,-1 9,-3 3,-2 5,-5 6,-8 1,-3 2,-9 2,-19l0 -25c0,-4 1,-7 2,-9 2,-2 4,-3 7,-3 3,0 5,1 7,3 1,2 2,5 2,9l0 59c0,4 -1,7 -2,9 -2,2 -4,3 -6,3 -3,0 -5,-1 -7,-3 -1,-2 -2,-5 -2,-9zm52 -60l0 2c4,-4 7,-8 11,-10 4,-2 8,-3 13,-3 5,0 10,1 14,3 3,2 6,6 8,10 1,3 2,5 3,8 0,3 0,7 0,11l0 38c0,5 -1,8 -2,10 -2,2 -4,3 -7,3 -3,0 -5,-1 -7,-3 -2,-2 -2,-5 -2,-10l0 -34c0,-6 -1,-12 -3,-15 -2,-4 -5,-6 -10,-6 -3,0 -6,1 -9,4 -3,2 -5,5 -6,9 -1,3 -1,8 -1,17l0 25c0,5 -1,8 -3,10 -2,2 -4,3 -7,3 -2,0 -5,-1 -6,-3 -2,-2 -3,-5 -3,-10l0 -59c0,-4 1,-7 2,-9 2,-1 4,-2 7,-2 1,0 3,0 4,1 1,1 3,2 3,4 1,1 1,3 1,6zm127 45c0,6 -1,11 -4,15 -2,4 -6,7 -11,9 -5,2 -10,3 -17,3 -7,0 -13,-1 -17,-3 -5,-3 -9,-5 -11,-9 -2,-3 -3,-7 -3,-10 0,-2 0,-4 2,-6 1,-1 3,-2 5,-2 2,0 4,0 5,1 1,1 2,3 3,5 2,3 4,6 7,8 2,2 6,3 10,3 4,0 7,-1 9,-3 3,-2 4,-4 4,-6 0,-4 -1,-7 -4,-8 -2,-2 -6,-3 -12,-5 -6,-2 -11,-4 -15,-5 -4,-2 -8,-5 -10,-8 -2,-3 -4,-7 -4,-12 0,-4 2,-8 4,-11 2,-4 5,-7 10,-9 4,-2 9,-3 15,-3 5,0 9,0 13,1 4,1 7,3 10,5 2,2 4,4 5,6 2,2 2,4 2,6 0,3 0,5 -2,6 -1,2 -3,2 -6,2 -2,0 -3,0 -5,-1 -1,-2 -2,-3 -4,-6 -2,-2 -3,-3 -5,-5 -2,-1 -5,-1 -8,-1 -3,0 -6,0 -8,2 -2,2 -3,4 -3,6 0,2 0,4 2,5 2,2 4,3 7,4 2,1 6,2 11,3 6,1 10,3 14,6 4,2 6,4 8,7 2,3 3,6 3,10z"/>
   <path class="fil1" d="M235 0c130,0 236,105 236,235 0,130 -106,236 -236,236 -130,0 -235,-106 -235,-236 0,-130 105,-235 235,-235z"/>
   <path class="fil1" d="M520 34l315 0c23,0 42,19 42,42l0 319c0,23 -19,42 -42,42l-315 0c-23,0 -42,-19 -42,-42l0 -319c0,-23 19,-42 42,-42z"/>
   <path class="fil1" d="M961 34l315 0c23,0 42,19 42,42l0 319c0,23 -19,42 -42,42l-315 0c-23,0 -42,-19 -42,-42l0 -319c0,-23 19,-42 42,-42z"/>
   <path class="fil1" d="M520 478l315 0c23,0 42,19 42,42l0 319c0,23 -19,42 -42,42l-315 0c-23,0 -42,-19 -42,-42l0 -319c0,-23 19,-42 42,-42z"/>
   <path class="fil1" d="M84 478l315 0c23,0 42,19 42,42l0 319c0,23 -19,42 -42,42l-315 0c-23,0 -42,-19 -42,-42l0 -319c0,-23 19,-42 42,-42z"/>
   <path class="fil1" d="M520 919l315 0c23,0 42,19 42,42l0 319c0,23 -19,41 -42,41l-315 0c-23,0 -42,-18 -42,-41l0 -319c0,-23 19,-42 42,-42z"/>
   <path class="fil1" d="M84 919l315 0c23,0 42,19 42,42l0 319c0,23 -19,41 -42,41l-315 0c-23,0 -42,-18 -42,-41l0 -319c0,-23 19,-42 42,-42z"/>
   <path class="fil1" d="M520 1363l315 0c23,0 42,19 42,42l0 319c0,23 -19,42 -42,42l-315 0c-23,0 -42,-19 -42,-42l0 -319c0,-23 19,-42 42,-42z"/>
   <path class="fil1" d="M84 1363l315 0c23,0 42,19 42,42l0 319c0,23 -19,42 -42,42l-315 0c-23,0 -42,-19 -42,-42l0 -319c0,-23 19,-42 42,-42z"/>
   <path class="fil1" d="M961 919l315 0c23,0 42,19 42,42l0 319c0,23 -19,41 -42,41l-315 0c-23,0 -42,-18 -42,-41l0 -319c0,-23 19,-42 42,-42z"/>
  </g>
 </g>
</svg>
