<?xml version="1.0" encoding="UTF-8"?>
<!DOCTYPE svg PUBLIC "-//W3C//DTD SVG 1.1//EN" "http://www.w3.org/Graphics/SVG/1.1/DTD/svg11.dtd">
<!-- Creator: CorelDRAW X8 -->
<svg xmlns="http://www.w3.org/2000/svg" xml:space="preserve" width="40px" height="79px" version="1.1" style="shape-rendering:geometricPrecision; text-rendering:geometricPrecision; image-rendering:optimizeQuality; fill-rule:evenodd; clip-rule:evenodd"
viewBox="0 0 2172 4353"
 xmlns:xlink="http://www.w3.org/1999/xlink">
 <defs>
  <style type="text/css">
   <![CDATA[
    .fil6 {fill:#B74A2C;fill-rule:nonzero}
    .fil9 {fill:#B7A697;fill-rule:nonzero}
    .fil4 {fill:#BC7A31;fill-rule:nonzero}
    .fil8 {fill:#D1C6B8;fill-rule:nonzero}
    .fil2 {fill:#DF4426;fill-rule:nonzero}
    .fil11 {fill:#DFF0FF;fill-rule:nonzero}
    .fil5 {fill:#E96025;fill-rule:nonzero}
    .fil3 {fill:#ED9721;fill-rule:nonzero}
    .fil7 {fill:#EEE6DB;fill-rule:nonzero}
    .fil10 {fill:#F2961F;fill-rule:nonzero}
    .fil1 {fill:#F8A710;fill-rule:nonzero}
    .fil0 {fill:#FFDD00;fill-rule:nonzero}
   ]]>
  </style>
 </defs>
 <g id="Camada_x0020_1">
  <metadata id="CorelCorpID_0Corel-Layer"/>
  <path class="fil0" d="M781 4045c0,0 -286,-597 0,-597 0,0 307,-15 0,597z"/>
  <path class="fil1" d="M782 3946c0,0 -206,-464 0,-464 0,0 219,-15 0,464z"/>
  <path class="fil2" d="M783 3864c0,0 -156,-364 0,-364 0,0 169,-10 0,364z"/>
  <path class="fil0" d="M1382 4045c0,0 -286,-597 0,-597 0,0 307,-15 0,597z"/>
  <path class="fil1" d="M1383 3946c0,0 -206,-464 0,-464 0,0 219,-15 0,464z"/>
  <path class="fil2" d="M1384 3864c0,0 -156,-364 0,-364 0,0 169,-10 0,364z"/>
  <path class="fil0" d="M1083 4353c0,0 -286,-597 0,-597 0,0 307,-15 0,597z"/>
  <path class="fil1" d="M1084 4255c0,0 -206,-465 0,-465 0,0 219,-14 0,465z"/>
  <path class="fil2" d="M1085 4172c0,0 -156,-364 0,-364 0,0 169,-10 0,364z"/>
  <path class="fil3" d="M488 2338c0,0 -376,78 -475,427 -69,242 149,647 347,794 0,0 -141,-588 253,-705l-125 -516z"/>
  <path class="fil4" d="M546 2686l27 0 40 168c-394,117 -253,705 -253,705 0,0 -353,-611 186,-873z"/>
  <path class="fil3" d="M1685 2338c0,0 375,78 474,427 69,242 -149,647 -346,794 0,0 140,-588 -254,-705l126 -516z"/>
  <path class="fil4" d="M1627 2686l-27 0 -41 168c394,117 254,705 254,705 0,0 344,-564 -186,-873z"/>
  <path class="fil5" d="M1440 3092c-111,49 -313,72 -358,77 -46,-5 -248,-28 -359,-77l0 210c0,0 139,55 349,55l0 0c3,0 6,0 10,0 3,0 6,0 9,0l0 0c210,0 349,-55 349,-55l0 -210z"/>
  <path class="fil6" d="M1440 3302l0 -210c-15,7 -32,13 -50,19l-150 74 -51 168c154,-13 251,-51 251,-51z"/>
  <path class="fil7" d="M1729 827c-199,-555 -647,-827 -647,-827 0,0 -449,272 -648,827 -139,388 -154,783 0,1434 155,651 210,850 210,850 0,0 158,88 423,88 264,0 452,-88 452,-88 0,0 55,-199 210,-850 154,-651 139,-1046 0,-1434z"/>
  <polygon class="fil8" points="1385,664 1385,664 1385,664 "/>
  <path class="fil8" d="M1250 3185c164,-25 269,-74 269,-74 0,0 55,-199 210,-850 154,-651 139,-1046 0,-1434 -21,-57 -44,-112 -69,-163l-275 0c1,2 370,835 -135,2521z"/>
  <path class="fil9" d="M1067 2207c-404,0 -643,-61 -660,-65l-27 -138c6,2 655,157 1402,5l-26 132c-263,53 -481,66 -689,66z"/>
  <path class="fil9" d="M1067 2004c-404,0 -682,-60 -699,-64l-13 -81c6,1 705,151 1453,0l-12 76c-264,54 -521,69 -729,69z"/>
  <path class="fil9" d="M1770 957c-776,-192 -1372,-2 -1377,0l25 -82c21,-8 599,-175 1327,-1l25 83z"/>
  <path class="fil10" d="M1517 1392c0,241 -195,436 -435,436 -241,0 -436,-195 -436,-436 0,-240 195,-435 436,-435 240,0 435,195 435,435z"/>
  <path class="fil11" d="M1385 1392c0,168 -136,304 -303,304 -168,0 -304,-136 -304,-304 0,-167 136,-303 304,-303 167,0 303,136 303,303z"/>
  <path class="fil3" d="M1684 716c-214,-480 -602,-716 -602,-716 0,0 -391,237 -605,720 2,0 445,-174 1207,-4z"/>
  <path class="fil4" d="M1385 664c93,12 193,28 299,52 0,0 0,-1 -1,-1 -160,-359 -418,-581 -537,-670 0,-1 -1,-1 -1,-1 -4,-3 -9,-7 -13,-10 0,0 -1,0 -1,-1 -4,-2 -8,-5 -12,-8 0,0 -1,0 -1,-1 -4,-2 -7,-4 -10,-6 0,-1 -1,-1 -2,-2 -2,-1 -5,-3 -7,-5 -1,0 -1,-1 -2,-1 -2,-1 -4,-2 -5,-4 -1,0 -2,0 -2,-1 -2,-1 -3,-2 -4,-2 0,0 0,0 0,0 -2,-1 -3,-2 -3,-2 -1,-1 -1,-1 -1,-1 0,0 166,188 303,664l0 0z"/>
  <path class="fil4" d="M1385 664c0,0 0,0 0,0 0,0 0,0 0,0l0 0z"/>
  <path class="fil3" d="M1102 2338c0,0 -456,508 0,1480 0,0 415,-897 0,-1480z"/>
  <path class="fil4" d="M1102 3818c0,0 415,-897 0,-1480 0,0 196,807 0,1480z"/>
 </g>
</svg>
