<?xml version="1.0" encoding="UTF-8"?>
<!DOCTYPE svg PUBLIC "-//W3C//DTD SVG 1.1//EN" "http://www.w3.org/Graphics/SVG/1.1/DTD/svg11.dtd">
<!-- Creator: CorelDRAW X8 -->
<svg xmlns="http://www.w3.org/2000/svg" xml:space="preserve" width="104px" height="104px" version="1.1" style="shape-rendering:geometricPrecision; text-rendering:geometricPrecision; image-rendering:optimizeQuality; fill-rule:evenodd; clip-rule:evenodd"
viewBox="0 0 10239 10239"
 xmlns:xlink="http://www.w3.org/1999/xlink">
 <defs>
  <style type="text/css">
   <![CDATA[
    .fil14 {fill:#B24E1D;fill-rule:nonzero}
    .fil12 {fill:#BF3725;fill-rule:nonzero}
    .fil10 {fill:#C65414;fill-rule:nonzero}
    .fil8 {fill:#D3321C;fill-rule:nonzero}
    .fil6 {fill:#D35B18;fill-rule:nonzero}
    .fil4 {fill:#D36229;fill-rule:nonzero}
    .fil9 {fill:#D38322;fill-rule:nonzero}
    .fil13 {fill:#D3892F;fill-rule:nonzero}
    .fil7 {fill:#D67422;fill-rule:nonzero}
    .fil5 {fill:#D68627;fill-rule:nonzero}
    .fil11 {fill:#E27820;fill-rule:nonzero}
    .fil3 {fill:#EE563D;fill-rule:nonzero}
    .fil0 {fill:#F48237;fill-rule:nonzero}
    .fil2 {fill:#F7A456;fill-rule:nonzero}
    .fil1 {fill:#F9B24E;fill-rule:nonzero}
   ]]>
  </style>
 </defs>
 <g id="Camada_x0020_1">
  <metadata id="CorelCorpID_0Corel-Layer"/>
  <g id="_2752939076624">
   <path class="fil0" d="M10239 5120c0,2827 -2292,5119 -5119,5119 -2828,0 -5120,-2292 -5120,-5119 0,-2828 2292,-5120 5120,-5120 2827,0 5119,2292 5119,5120z"/>
   <path class="fil1" d="M7569 9616c1591,-868 2670,-2556 2670,-4496 0,-2828 -2292,-5120 -5119,-5120 -2828,0 -5120,2292 -5120,5120 0,829 198,1612 548,2305 1,1 2197,1800 7021,2191z"/>
   <path class="fil0" d="M9369 7976c550,-816 870,-1799 870,-2856 0,-2828 -2292,-5120 -5119,-5120 -2828,0 -5120,2292 -5120,5120 0,584 98,1146 279,1669 4119,1732 7409,1479 9090,1187z"/>
   <path class="fil2" d="M5120 0c-2828,0 -5120,2292 -5120,5120 0,127 5,252 14,377 279,293 831,723 2102,1020 1292,302 1535,275 3351,825 1816,549 2545,129 3355,165 368,16 651,-11 851,-45 362,-702 566,-1498 566,-2342 0,-2828 -2292,-5120 -5119,-5120z"/>
   <path class="fil3" d="M5120 0c-2752,0 -4997,2172 -5115,4895l0 0c0,0 3035,2405 9897,2055l0 0c218,-568 337,-1185 337,-1830 0,-2828 -2292,-5120 -5119,-5120z"/>
   <path class="fil1" d="M5120 0c-2530,0 -4631,1835 -5046,4246 563,275 4294,1941 10165,895 0,-7 0,-14 0,-21 0,-2828 -2292,-5120 -5119,-5120z"/>
   <path class="fil0" d="M708 2522l0 0c0,0 3405,2334 9518,2227 -190,-2654 -2404,-4749 -5106,-4749 -1880,0 -3522,1013 -4412,2522z"/>
   <path class="fil2" d="M884 2244c0,0 2564,905 5172,899 2291,-5 3414,333 3978,539 -621,-2127 -2586,-3682 -4914,-3682 -1762,0 -3315,890 -4236,2244z"/>
   <path class="fil3" d="M6321 2770c1759,0 2685,269 3523,373 -774,-1846 -2598,-3143 -4724,-3143 -1589,0 -3008,723 -3947,1859 1227,472 3389,911 5148,911z"/>
   <path class="fil1" d="M9532 2522c-891,-1509 -2533,-2522 -4412,-2522 -970,0 -1877,270 -2650,738l0 0c0,0 2138,1206 7062,1784l0 0z"/>
   <path class="fil0" d="M2926 493c1107,534 2849,1080 5776,969 -923,-904 -2188,-1462 -3582,-1462 -786,0 -1529,177 -2194,493z"/>
   <path class="fil4" d="M5574 21c21,40 3463,6716 -2291,9878 570,219 1189,340 1837,340 2827,0 5119,-2292 5119,-5119 0,-2674 -2050,-4869 -4665,-5099z"/>
   <path class="fil5" d="M10227 4779c-4,-57 -8,-113 -13,-169 -3,-34 -8,-67 -12,-101 -6,-50 -12,-99 -19,-149 -5,-36 -12,-71 -18,-107 -8,-46 -16,-92 -25,-138 -7,-37 -16,-74 -24,-111 -10,-43 -19,-87 -30,-130 -10,-38 -20,-75 -30,-112 -12,-42 -23,-84 -36,-125 -11,-38 -23,-75 -35,-112 -14,-40 -27,-80 -41,-120 -13,-37 -27,-75 -42,-112 -14,-38 -29,-76 -44,-114 -16,-38 -32,-75 -49,-113 -15,-36 -31,-72 -48,-107 -18,-38 -36,-76 -55,-114 -16,-34 -34,-67 -51,-100 -20,-39 -41,-77 -62,-114 -17,-32 -35,-63 -54,-94 -22,-39 -45,-77 -68,-115 -18,-29 -37,-57 -55,-85 -26,-39 -51,-79 -78,-117 -17,-25 -35,-51 -53,-76 -29,-40 -58,-80 -88,-119 -16,-22 -33,-43 -50,-64 -33,-42 -65,-83 -100,-124 -13,-16 -27,-31 -40,-47 -39,-45 -78,-90 -118,-134 -6,-6 -11,-12 -17,-18 -362,-390 -784,-723 -1251,-985 -4,-2 -7,-4 -10,-6 -63,-35 -127,-69 -192,-101 -6,-3 -12,-6 -18,-10 -64,-31 -128,-61 -193,-90 -7,-4 -15,-7 -22,-11 -65,-28 -130,-55 -196,-81 -8,-3 -16,-6 -25,-10 -65,-25 -132,-49 -198,-72 -9,-3 -18,-6 -26,-8 -67,-23 -135,-44 -204,-63 -8,-3 -16,-5 -25,-8 -69,-19 -139,-37 -209,-54 -8,-2 -15,-4 -23,-5 -71,-17 -143,-32 -216,-46 -6,-1 -12,-2 -18,-3 -75,-13 -150,-26 -225,-36 -4,0 -7,-1 -11,-1 -78,-11 -157,-20 -236,-27 19,37 2954,5729 -1123,9091 881,223 1918,407 3118,504 61,-33 121,-68 180,-103 20,-12 39,-24 58,-36 48,-29 96,-60 143,-91 14,-10 29,-19 43,-29 58,-39 115,-80 171,-121 17,-13 34,-26 50,-39 44,-33 88,-67 130,-102 16,-12 31,-24 46,-37 54,-45 107,-90 158,-137 15,-13 29,-26 43,-39 41,-38 81,-76 120,-115 15,-15 30,-29 45,-44 49,-50 98,-100 145,-152 11,-12 21,-24 32,-36 38,-43 76,-87 113,-131 14,-16 28,-33 42,-50 44,-55 88,-110 130,-166 7,-9 12,-17 19,-26 37,-50 73,-101 109,-153 12,-18 24,-36 36,-54 36,-54 72,-109 106,-165 4,-6 8,-12 12,-19 37,-61 73,-123 107,-186 10,-19 20,-37 30,-56 29,-53 57,-108 83,-162 6,-12 13,-24 18,-36 32,-65 61,-131 89,-197 8,-18 16,-37 23,-55 23,-55 45,-110 66,-166 6,-16 12,-31 17,-47 25,-68 48,-137 70,-207 6,-17 11,-34 16,-51 17,-58 34,-116 49,-174 5,-18 10,-36 15,-54 18,-71 34,-144 50,-217 3,-14 5,-29 8,-43 12,-62 23,-124 33,-186 3,-20 7,-39 9,-59 11,-75 21,-150 29,-226 1,-9 2,-19 3,-28 6,-68 11,-136 15,-205 1,-21 2,-41 3,-62 4,-77 6,-156 6,-234 0,-86 -2,-172 -6,-257 -2,-28 -4,-56 -6,-84z"/>
   <path class="fil6" d="M10227 4779c-4,-57 -8,-113 -13,-169 -3,-34 -8,-67 -12,-101 -6,-50 -12,-99 -19,-149 -5,-36 -12,-71 -18,-107 -8,-46 -16,-92 -25,-138 -7,-37 -16,-74 -24,-111 -10,-43 -19,-87 -30,-130 -10,-38 -20,-75 -30,-112 -12,-42 -23,-84 -36,-125 -11,-38 -23,-75 -35,-112 -14,-40 -27,-80 -41,-120 -13,-37 -27,-75 -42,-112 -14,-38 -29,-76 -44,-114 -16,-38 -32,-75 -49,-113 -15,-36 -31,-72 -48,-107 -18,-38 -36,-76 -55,-114 -16,-34 -34,-67 -51,-100 -20,-39 -41,-77 -62,-114 -17,-32 -35,-63 -54,-94 -22,-39 -45,-77 -68,-115 -18,-29 -37,-57 -55,-85 -26,-39 -51,-79 -78,-117 -17,-25 -35,-51 -53,-76 -29,-40 -58,-80 -88,-119 -16,-22 -33,-43 -50,-64 -33,-42 -65,-83 -100,-124 -13,-16 -27,-31 -40,-47 -39,-45 -78,-90 -118,-134 -6,-6 -11,-12 -17,-18 -362,-390 -784,-723 -1251,-985 -4,-2 -7,-4 -10,-6 -63,-35 -127,-69 -192,-101 -6,-3 -12,-6 -18,-10 -64,-31 -128,-61 -193,-90 -7,-4 -15,-7 -22,-11 -65,-28 -130,-55 -196,-81 -8,-3 -16,-6 -25,-10 -65,-25 -132,-49 -198,-72 -9,-3 -18,-6 -26,-8 -67,-23 -135,-44 -204,-63 -8,-3 -16,-5 -25,-8 -69,-19 -139,-37 -209,-54 -8,-2 -15,-4 -23,-5 -71,-17 -143,-32 -216,-46 -6,-1 -12,-2 -18,-3 -75,-13 -150,-26 -225,-36 -4,0 -7,-1 -11,-1 -78,-11 -157,-20 -236,-27 17,34 2429,4713 -156,8093 1697,162 3053,18 3951,-138 40,-60 79,-121 117,-182 11,-19 22,-38 34,-57 27,-46 54,-93 81,-141 11,-20 22,-40 33,-61 32,-59 63,-119 92,-179 3,-7 7,-13 10,-20 32,-66 62,-134 91,-202 9,-20 17,-41 26,-62 21,-50 41,-102 60,-153 8,-21 17,-43 24,-65 24,-66 47,-133 68,-200 2,-5 3,-9 5,-14 22,-72 42,-144 61,-217 6,-22 11,-44 17,-65 13,-55 26,-110 38,-165 5,-23 9,-45 14,-68 14,-72 28,-146 39,-220 1,-2 1,-4 1,-6 12,-77 21,-153 30,-231 2,-22 4,-45 6,-68 6,-57 10,-115 13,-174 2,-23 3,-46 4,-69 4,-79 6,-158 6,-237 0,-86 -2,-172 -6,-257 -2,-28 -4,-56 -6,-84z"/>
   <path class="fil7" d="M10227 4779c-4,-57 -8,-113 -13,-169 -3,-34 -8,-67 -12,-101 -6,-50 -12,-99 -19,-149 -5,-36 -12,-71 -18,-107 -8,-46 -16,-92 -25,-138 -7,-37 -16,-74 -24,-111 -10,-43 -19,-87 -30,-130 -10,-38 -20,-75 -30,-112 -12,-42 -23,-84 -36,-125 -11,-38 -23,-75 -35,-112 -14,-40 -27,-80 -41,-120 -13,-37 -27,-75 -42,-112 -14,-38 -29,-76 -44,-114 -16,-38 -32,-75 -49,-113 -15,-36 -31,-72 -48,-107 -18,-38 -36,-76 -55,-114 -16,-34 -34,-67 -51,-100 -20,-39 -41,-77 -62,-114 -17,-32 -35,-63 -54,-94 -22,-39 -45,-77 -68,-115 -18,-29 -37,-57 -55,-85 -26,-39 -51,-79 -78,-117 -17,-25 -35,-51 -53,-76 -29,-40 -58,-80 -88,-119 -16,-22 -33,-43 -50,-64 -33,-42 -65,-83 -100,-124 -13,-16 -27,-31 -40,-47 -39,-45 -78,-90 -118,-134 -6,-6 -11,-12 -17,-18 -362,-390 -784,-723 -1251,-985 -4,-2 -7,-4 -10,-6 -63,-35 -127,-69 -192,-101 -6,-3 -12,-6 -18,-10 -64,-31 -128,-61 -193,-90 -7,-4 -15,-7 -22,-11 -65,-28 -130,-55 -196,-81 -8,-3 -16,-6 -25,-10 -65,-25 -132,-49 -198,-72 -9,-3 -18,-6 -26,-8 -67,-23 -135,-44 -204,-63 -8,-3 -16,-5 -25,-8 -69,-19 -139,-37 -209,-54 -8,-2 -15,-4 -23,-5 -71,-17 -143,-32 -216,-46 -6,-1 -12,-2 -18,-3 -75,-13 -150,-26 -225,-36 -4,0 -7,-1 -11,-1 -78,-11 -157,-20 -236,-27 16,32 2130,4132 283,7428 1535,381 2216,25 2965,58 367,16 649,-11 850,-45 18,-36 37,-72 55,-109 3,-6 7,-12 10,-18 31,-66 61,-132 89,-199 6,-14 13,-28 18,-43 28,-65 54,-132 79,-199 5,-13 9,-26 14,-39 24,-66 47,-133 68,-201 2,-5 4,-10 5,-15 22,-71 42,-142 61,-214 4,-15 8,-30 12,-45 17,-70 34,-141 49,-213 3,-14 5,-27 8,-41 14,-73 28,-146 39,-220 0,-3 1,-6 2,-8 11,-76 20,-152 29,-229 1,-15 3,-29 4,-44 8,-74 13,-149 17,-225 1,-14 2,-28 2,-43 4,-78 6,-158 6,-237 0,-86 -2,-172 -6,-257 -2,-28 -4,-56 -6,-84z"/>
   <path class="fil8" d="M10227 4779c-4,-57 -8,-113 -13,-169 -3,-34 -8,-67 -12,-101 -6,-50 -12,-99 -19,-149 -5,-36 -12,-71 -18,-107 -8,-46 -16,-92 -25,-138 -7,-37 -16,-74 -24,-111 -10,-43 -19,-87 -30,-130 -10,-38 -20,-75 -30,-112 -12,-42 -23,-84 -36,-125 -11,-38 -23,-75 -35,-112 -14,-40 -27,-80 -41,-120 -13,-37 -27,-75 -42,-112 -14,-38 -29,-76 -44,-114 -16,-38 -32,-75 -49,-113 -15,-36 -31,-72 -48,-107 -18,-38 -36,-76 -55,-114 -16,-34 -34,-67 -51,-100 -20,-39 -41,-77 -62,-114 -17,-32 -35,-63 -54,-94 -22,-39 -45,-77 -68,-115 -18,-29 -37,-57 -55,-85 -26,-39 -51,-79 -78,-117 -17,-25 -35,-51 -53,-76 -29,-40 -58,-80 -88,-119 -16,-22 -33,-43 -50,-64 -33,-42 -65,-83 -100,-124 -13,-16 -27,-31 -40,-47 -39,-45 -78,-90 -118,-134 -6,-6 -11,-12 -17,-18 -362,-390 -784,-723 -1251,-985 -4,-2 -7,-4 -10,-6 -63,-35 -127,-69 -192,-101 -6,-3 -12,-6 -18,-10 -64,-31 -128,-61 -193,-90 -7,-4 -15,-7 -22,-11 -65,-28 -130,-55 -196,-81 -8,-3 -16,-6 -25,-10 -65,-25 -132,-49 -198,-72 -9,-3 -18,-6 -26,-8 -67,-23 -135,-44 -204,-63 -8,-3 -16,-5 -25,-8 -69,-19 -139,-37 -209,-54 -8,-2 -15,-4 -23,-5 -71,-17 -143,-32 -216,-46 -6,-1 -12,-2 -18,-3 -75,-13 -150,-26 -225,-36 -4,0 -7,-1 -11,-1 -78,-11 -157,-20 -236,-27 15,30 1889,3664 569,6839 1095,117 2345,162 3758,90 4,-9 7,-18 11,-28 15,-41 30,-82 44,-123 12,-35 24,-69 35,-104 13,-41 26,-81 38,-122 11,-37 21,-74 31,-112 11,-39 22,-79 31,-119 10,-40 19,-80 28,-119 8,-39 17,-78 24,-117 9,-43 16,-86 23,-129 7,-37 13,-74 19,-111 6,-47 12,-94 17,-141 5,-35 9,-69 13,-104 5,-54 8,-108 12,-163 2,-29 5,-57 6,-86 4,-84 6,-168 6,-252 0,-86 -2,-172 -6,-257 -2,-28 -4,-56 -6,-84z"/>
   <path class="fil9" d="M10239 5141c0,-7 0,-14 0,-21 0,-86 -2,-172 -6,-257 -2,-28 -4,-56 -6,-84 -4,-57 -8,-113 -13,-169 -3,-34 -8,-67 -12,-101 -6,-50 -12,-99 -19,-149 -5,-36 -12,-71 -18,-107 -8,-46 -16,-92 -25,-138 -7,-37 -16,-74 -24,-111 -10,-43 -19,-87 -30,-130 -10,-38 -20,-75 -30,-112 -12,-42 -23,-84 -36,-125 -11,-38 -23,-75 -35,-112 -14,-40 -27,-80 -41,-120 -13,-37 -27,-75 -42,-112 -14,-38 -29,-76 -44,-114 -16,-38 -32,-75 -49,-113 -15,-36 -31,-72 -48,-107 -18,-38 -36,-76 -55,-114 -16,-34 -34,-67 -51,-100 -20,-39 -41,-77 -62,-114 -17,-32 -35,-63 -54,-94 -22,-39 -45,-77 -68,-115 -18,-29 -37,-57 -55,-85 -26,-39 -51,-79 -78,-117 -17,-25 -35,-51 -53,-76 -29,-40 -58,-80 -88,-119 -16,-22 -33,-43 -50,-64 -33,-42 -65,-83 -100,-124 -13,-16 -27,-31 -40,-47 -39,-45 -78,-90 -118,-134 -6,-6 -11,-12 -17,-18 -362,-390 -784,-723 -1251,-985 -4,-2 -7,-4 -10,-6 -63,-35 -127,-69 -192,-101 -6,-3 -12,-6 -18,-10 -64,-31 -128,-61 -193,-90 -7,-4 -15,-7 -22,-11 -65,-28 -130,-55 -196,-81 -8,-3 -16,-6 -25,-10 -65,-25 -132,-49 -198,-72 -9,-3 -18,-6 -26,-8 -67,-23 -135,-44 -204,-63 -8,-3 -16,-5 -25,-8 -69,-19 -139,-37 -209,-54 -8,-2 -15,-4 -23,-5 -71,-17 -143,-32 -216,-46 -6,-1 -12,-2 -18,-3 -75,-13 -150,-26 -225,-36 -4,0 -7,-1 -11,-1 -78,-11 -157,-20 -236,-27 13,25 1391,2699 954,5461 1114,-3 2355,-99 3711,-341z"/>
   <path class="fil10" d="M10225 4749c-2,-18 -3,-36 -4,-55 -4,-46 -9,-92 -14,-138 -4,-36 -8,-71 -12,-107 -6,-46 -13,-91 -20,-136 -6,-36 -12,-71 -18,-106 -8,-45 -17,-89 -26,-133 -7,-35 -15,-70 -23,-105 -10,-44 -20,-87 -31,-130 -10,-35 -19,-70 -28,-105 -12,-42 -25,-84 -38,-125 -10,-35 -21,-70 -33,-105 -13,-40 -27,-80 -42,-120 -13,-36 -25,-71 -39,-105 -15,-39 -30,-77 -46,-116 -15,-35 -30,-70 -45,-105 -16,-37 -33,-73 -50,-109 -17,-36 -34,-71 -51,-107 -17,-34 -35,-68 -53,-102 -19,-36 -38,-72 -58,-107 -18,-33 -36,-65 -55,-96 -21,-37 -43,-73 -65,-109 -18,-30 -37,-59 -56,-88 -24,-37 -48,-74 -73,-110 -19,-27 -38,-54 -57,-81 -27,-37 -53,-74 -81,-111 -19,-24 -38,-49 -56,-73 -30,-37 -60,-75 -91,-112 -18,-22 -36,-43 -54,-65 -33,-38 -67,-76 -101,-113 -17,-19 -35,-38 -52,-56 -36,-39 -73,-78 -110,-115 -17,-16 -33,-32 -49,-48 -40,-39 -81,-78 -122,-115 -15,-14 -30,-27 -45,-40 -43,-39 -88,-78 -133,-115 -13,-11 -26,-22 -39,-33 -48,-39 -96,-77 -145,-114 -12,-9 -23,-17 -34,-26 -52,-38 -104,-76 -158,-113 -9,-6 -18,-12 -27,-18 -56,-38 -113,-75 -170,-111 -7,-4 -14,-8 -21,-13 -60,-37 -121,-73 -183,-107 -4,-3 -9,-5 -13,-7 -65,-37 -130,-71 -197,-104 -1,-1 -3,-2 -5,-3 -559,-279 -1176,-458 -1828,-516 12,23 1087,2109 1038,4498 1070,160 2277,253 3613,230z"/>
   <path class="fil11" d="M10011 3606c-15,-45 -29,-91 -44,-136 -10,-31 -22,-61 -33,-91 -14,-40 -29,-80 -44,-119 -12,-31 -24,-61 -37,-91 -16,-39 -32,-77 -49,-116 -13,-29 -26,-59 -40,-88 -18,-39 -37,-77 -56,-116 -13,-27 -27,-55 -41,-81 -21,-42 -44,-83 -66,-124 -13,-23 -26,-46 -39,-69 -29,-51 -60,-102 -91,-152 -7,-12 -14,-24 -21,-35 -40,-64 -82,-126 -125,-188 -4,-6 -8,-11 -12,-17 -39,-55 -78,-109 -119,-162 -10,-14 -21,-28 -32,-42 -35,-45 -71,-89 -107,-133 -13,-15 -25,-29 -38,-44 -36,-43 -73,-85 -111,-127 -12,-13 -25,-26 -37,-40 -41,-44 -82,-87 -124,-129 -10,-10 -20,-20 -30,-29 -50,-50 -101,-98 -153,-146 -2,-2 -4,-4 -6,-5 -228,-207 -475,-393 -738,-557 -3,-1 -5,-3 -8,-5 -64,-39 -129,-77 -194,-114 -2,-1 -3,-2 -5,-3 -612,-341 -1302,-561 -2037,-626 9,18 702,1363 951,3126 1978,38 2985,343 3509,535 -7,-25 -15,-50 -23,-76z"/>
   <path class="fil12" d="M9802 3049c-8,-18 -15,-36 -23,-53 -61,-133 -127,-262 -198,-388 -9,-15 -18,-31 -27,-46 -28,-49 -56,-96 -86,-144 -10,-16 -20,-32 -30,-48 -33,-51 -66,-102 -101,-152 -6,-9 -12,-18 -18,-27 -86,-122 -176,-240 -271,-353 -7,-9 -14,-17 -21,-25 -42,-49 -84,-98 -127,-145 -8,-8 -15,-16 -23,-24 -154,-167 -318,-323 -493,-467 -2,-2 -4,-4 -6,-5 -58,-48 -117,-94 -176,-140 -2,-1 -3,-2 -5,-3 -743,-560 -1643,-922 -2623,-1008 9,17 605,1175 891,2750 1665,14 2563,271 3377,372 -13,-32 -26,-63 -40,-94z"/>
   <path class="fil13" d="M9460 2405c-3,-5 -6,-11 -9,-16 -38,-60 -77,-118 -117,-176 -9,-13 -18,-25 -27,-38 -35,-49 -71,-99 -107,-147 -7,-9 -13,-17 -20,-26 -44,-57 -89,-114 -136,-169 -4,-5 -9,-10 -13,-16 -43,-51 -87,-101 -132,-150 -7,-7 -14,-15 -20,-22 -101,-108 -206,-213 -315,-312 -5,-4 -9,-8 -13,-12 -803,-725 -1836,-1199 -2977,-1300 7,14 415,804 717,1965 906,199 1981,388 3239,536 -23,-39 -46,-79 -70,-117z"/>
   <path class="fil14" d="M8700 1463c-29,-30 -60,-58 -91,-87 -20,-19 -41,-39 -62,-58 -38,-35 -78,-69 -117,-102 -21,-17 -41,-35 -61,-51 -42,-34 -84,-68 -127,-100 -19,-15 -38,-30 -57,-45 -45,-33 -91,-66 -136,-98 -19,-12 -37,-26 -55,-38 -48,-32 -96,-64 -145,-94 -17,-11 -34,-22 -52,-33 -51,-31 -102,-61 -154,-91 -16,-9 -32,-18 -48,-27 -54,-30 -108,-58 -163,-86 -15,-8 -30,-16 -45,-23 -57,-28 -114,-55 -172,-81 -13,-6 -27,-12 -41,-18 -59,-26 -120,-51 -180,-75 -13,-5 -25,-10 -37,-15 -63,-24 -126,-47 -190,-69 -11,-3 -21,-7 -32,-10 -66,-22 -132,-43 -199,-62 -9,-3 -17,-5 -26,-7 -69,-20 -139,-38 -210,-55 -6,-1 -12,-3 -19,-4 -73,-17 -146,-32 -220,-46 -4,-1 -8,-2 -11,-2 -77,-14 -154,-27 -232,-37 0,0 0,0 -1,-1 -80,-10 -161,-20 -243,-27 6,11 276,535 539,1353 741,88 1596,126 2587,89z"/>
  </g>
 </g>
</svg>
