<?xml version="1.0" encoding="UTF-8"?>
<!DOCTYPE svg PUBLIC "-//W3C//DTD SVG 1.1//EN" "http://www.w3.org/Graphics/SVG/1.1/DTD/svg11.dtd">
<!-- Creator: CorelDRAW X8 -->
<svg xmlns="http://www.w3.org/2000/svg" xml:space="preserve" width="172px" height="120px" version="1.1" style="shape-rendering:geometricPrecision; text-rendering:geometricPrecision; image-rendering:optimizeQuality; fill-rule:evenodd; clip-rule:evenodd"
viewBox="0 0 22180 15389"
 xmlns:xlink="http://www.w3.org/1999/xlink">
 <defs>
  <style type="text/css">
   <![CDATA[
    .fil3 {fill:#665C34;fill-rule:nonzero}
    .fil5 {fill:#685E5B;fill-rule:nonzero}
    .fil4 {fill:#9F918A;fill-rule:nonzero}
    .fil2 {fill:#A59656;fill-rule:nonzero}
    .fil1 {fill:#BDAD68;fill-rule:nonzero}
    .fil0 {fill:#F4DD80;fill-rule:nonzero}
   ]]>
  </style>
 </defs>
 <g id="Camada_x0020_1">
  <metadata id="CorelCorpID_0Corel-Layer"/>
  <g id="_2752939061520">
   <path class="fil0" d="M12244 1666c3266,771 5289,4043 4519,7308 -770,3266 -4042,5290 -7308,4519 -3266,-770 -5289,-4042 -4519,-7308 770,-3265 4042,-5289 7308,-4519z"/>
   <path class="fil1" d="M11668 1560c-1674,2202 -3497,3388 -4794,4007 -787,376 -1470,590 -1959,709 -32,147 -58,294 -80,440 513,-114 1284,-338 2195,-771 1377,-654 3326,-1923 5090,-4306 -151,-32 -301,-59 -452,-79z"/>
   <path class="fil1" d="M7537 7840c1822,-803 4385,-2361 6700,-5305 -151,-101 -307,-197 -469,-285 -2228,2814 -4680,4309 -6426,5082 -1008,446 -1890,704 -2540,853 19,182 45,363 79,542 676,-152 1595,-419 2656,-887z"/>
   <path class="fil1" d="M15057 3196c-2280,3096 -4868,4698 -6676,5503 -1462,651 -2653,897 -3231,986 148,402 339,786 567,1146 711,-135 1807,-415 3105,-987 1915,-844 4633,-2506 7047,-5687 -236,-346 -508,-668 -812,-961z"/>
   <path class="fil1" d="M16837 6540c-46,-261 -108,-517 -187,-768 -2325,3148 -4965,4777 -6812,5595 -1172,519 -2173,784 -2836,917 212,174 437,334 673,478 643,-160 1459,-416 2383,-822 1843,-812 4442,-2396 6779,-5400z"/>
   <path class="fil1" d="M11776 12648c-1079,475 -1986,693 -2531,791 69,20 139,38 210,54 267,63 534,107 800,134 477,-133 1042,-324 1667,-597 1264,-554 2956,-1543 4599,-3271 97,-253 178,-514 242,-785 10,-42 19,-83 28,-125 -1762,2068 -3648,3197 -5015,3799z"/>
   <path class="fil2" d="M12244 1666c-1541,-363 -3083,-104 -4364,614 976,262 7689,2398 5147,10972 1811,-697 3257,-2247 3736,-4278 770,-3265 -1253,-6537 -4519,-7308z"/>
   <path class="fil3" d="M12026 1620c-35,-6 -70,-14 -105,-20 -69,-12 -138,-23 -206,-33 -16,-2 -31,-5 -47,-7 -504,663 -1022,1233 -1535,1725 115,72 232,149 349,231 548,-532 1101,-1152 1637,-1876 -31,-7 -62,-13 -93,-20z"/>
   <path class="fil3" d="M12008 4923c747,-671 1500,-1460 2229,-2387 -5,-4 -9,-7 -14,-10 -45,-30 -91,-59 -137,-88 -35,-22 -70,-44 -106,-66 -45,-27 -91,-53 -137,-79 -25,-14 -50,-28 -76,-42 -694,877 -1410,1625 -2119,2264 123,129 243,265 360,408z"/>
   <path class="fil3" d="M15865 4151c-116,-169 -240,-332 -373,-489 -11,-14 -23,-27 -34,-40 -56,-65 -112,-128 -169,-190 -17,-18 -35,-36 -53,-54 -53,-56 -107,-111 -163,-165 -5,-6 -11,-11 -16,-16 -779,1056 -1592,1938 -2399,2674 203,357 381,747 526,1173 900,-786 1812,-1737 2685,-2887 -2,-2 -3,-4 -4,-6z"/>
   <path class="fil3" d="M13576 9036c17,248 24,505 20,771 1071,-838 2183,-1906 3241,-3266 -14,-78 -29,-156 -46,-233 -6,-29 -13,-57 -19,-85 -14,-60 -29,-119 -44,-178 -7,-26 -13,-52 -20,-78 -18,-65 -38,-130 -58,-194 -996,1348 -2050,2417 -3074,3263z"/>
   <path class="fil3" d="M13383 11798c-34,179 -73,361 -116,547 1008,-587 2141,-1416 3252,-2584 4,-9 8,-18 11,-26 8,-20 15,-41 22,-61 38,-103 74,-208 106,-314 4,-12 7,-24 11,-35 34,-116 66,-232 94,-351 9,-41 17,-82 26,-122 -1142,1339 -2335,2283 -3406,2946z"/>
   <path class="fil4" d="M5150 9685c0,0 -1555,1396 -1269,2407 286,1012 3882,-230 7782,-2685 3900,-2455 5883,-4442 6494,-6346 574,-1787 -3100,135 -3100,135l-305 -274c0,0 5244,-3468 6986,-2848 1741,621 -1705,4820 -9511,9969 -5686,3752 -12104,6886 -12226,4531 -100,-1946 5008,-5316 5008,-5316l141 427z"/>
   <path class="fil5" d="M18157 3061c-508,1583 -1965,3223 -4683,5142 28,269 68,595 104,929 6847,-4727 9797,-8474 8160,-9058 -1742,-620 -6986,2848 -6986,2848l305 274c0,0 3674,-1922 3100,-135z"/>
  </g>
 </g>
</svg>
