<?xml version="1.0" encoding="UTF-8"?>
<!DOCTYPE svg PUBLIC "-//W3C//DTD SVG 1.1//EN" "http://www.w3.org/Graphics/SVG/1.1/DTD/svg11.dtd">
<!-- Creator: CorelDRAW X8 -->
<svg xmlns="http://www.w3.org/2000/svg" xml:space="preserve" width="99px" height="99px" version="1.1" style="shape-rendering:geometricPrecision; text-rendering:geometricPrecision; image-rendering:optimizeQuality; fill-rule:evenodd; clip-rule:evenodd"
viewBox="0 0 10194 10194"
 xmlns:xlink="http://www.w3.org/1999/xlink">
 <defs>
  <style type="text/css">
   <![CDATA[
    .fil2 {fill:#B63F26;fill-rule:nonzero}
    .fil1 {fill:#D34C2D;fill-rule:nonzero}
    .fil0 {fill:#F05E2A;fill-rule:nonzero}
   ]]>
  </style>
 </defs>
 <g id="Camada_x0020_1">
  <metadata id="CorelCorpID_0Corel-Layer"/>
  <g id="_2716597007152">
   <path class="fil0" d="M10194 5097c0,2815 -2282,5097 -5097,5097 -2815,0 -5097,-2282 -5097,-5097 0,-2815 2282,-5097 5097,-5097 2815,0 5097,2282 5097,5097z"/>
   <path class="fil1" d="M10194 5097c0,-2815 -2282,-5097 -5097,-5097 -435,0 -857,55 -1260,157 13,6 6006,2784 3256,9631 1823,-776 3101,-2584 3101,-4691z"/>
   <path class="fil2" d="M2405 1751c-490,325 -502,768 -333,870 301,181 844,-278 1148,-554 390,-354 -191,-730 -815,-316z"/>
   <path class="fil2" d="M1490 4433c-91,142 -23,367 190,405 303,53 438,-144 351,-410 -80,-244 -430,-166 -541,5z"/>
   <path class="fil2" d="M4064 3184c-674,431 -878,1108 0,1017 878,-90 1452,-716 1171,-1017 -250,-266 -848,-206 -1171,0z"/>
   <path class="fil2" d="M5329 775c-224,69 -294,447 0,488 330,46 606,35 613,-250 8,-306 -340,-321 -613,-238z"/>
   <path class="fil2" d="M7312 2408c-596,120 -1046,596 -363,835 683,239 2063,4 1545,-516 -308,-310 -879,-380 -1182,-319z"/>
   <path class="fil2" d="M6528 5117c-233,136 -526,479 0,391 474,-80 812,-234 798,-373 -26,-258 -510,-185 -798,-18z"/>
   <path class="fil2" d="M2448 6629c-77,753 365,1670 898,947 471,-638 594,-1425 0,-1489 -646,-70 -864,202 -898,542z"/>
   <path class="fil2" d="M5375 7501c-39,234 -88,604 267,521 408,-95 317,-597 259,-709 -100,-195 -474,-126 -526,188z"/>
   <path class="fil2" d="M8012 6385c-297,601 -292,1095 337,702 622,-389 677,-1385 365,-1337 -383,59 -702,635 -702,635z"/>
   <path class="fil2" d="M3870 8606c-234,121 -283,546 109,702 186,74 807,-53 668,-445 -118,-333 -630,-333 -777,-257z"/>
  </g>
 </g>
</svg>
