<?xml version="1.0" encoding="UTF-8"?>
<!DOCTYPE svg PUBLIC "-//W3C//DTD SVG 1.1//EN" "http://www.w3.org/Graphics/SVG/1.1/DTD/svg11.dtd">
<!-- Creator: CorelDRAW X8 -->
<svg xmlns="http://www.w3.org/2000/svg" xml:space="preserve" width="178px" height="95px" version="1.1" style="shape-rendering:geometricPrecision; text-rendering:geometricPrecision; image-rendering:optimizeQuality; fill-rule:evenodd; clip-rule:evenodd"
viewBox="0 0 23867 12671"
 xmlns:xlink="http://www.w3.org/1999/xlink">
 <defs>
  <style type="text/css">
   <![CDATA[
    .fil11 {fill:#4E6C6D;fill-rule:nonzero}
    .fil10 {fill:#66898D;fill-rule:nonzero}
    .fil5 {fill:#698A8E;fill-rule:nonzero}
    .fil8 {fill:#70969B;fill-rule:nonzero}
    .fil3 {fill:#779BA0;fill-rule:nonzero}
    .fil0 {fill:#83A9B1;fill-rule:nonzero}
    .fil6 {fill:#84B9C1;fill-rule:nonzero}
    .fil7 {fill:#86B0B7;fill-rule:nonzero}
    .fil4 {fill:#93C6CE;fill-rule:nonzero}
    .fil2 {fill:#9EC8D2;fill-rule:nonzero}
    .fil9 {fill:#A3D0D8;fill-rule:nonzero}
    .fil1 {fill:#B5E2ED;fill-rule:nonzero}
   ]]>
  </style>
 </defs>
 <g id="Camada_x0020_1">
  <metadata id="CorelCorpID_0Corel-Layer"/>
  <g id="_2716597007088">
   <path class="fil0" d="M18124 6336c0,3499 -2836,6335 -6335,6335 -3499,0 -6335,-2836 -6335,-6335 0,-3499 2836,-6336 6335,-6336 3499,0 6335,2837 6335,6336z"/>
   <path class="fil1" d="M14820 11900c1969,-1075 3304,-3164 3304,-5564 0,-3499 -2836,-6336 -6335,-6336 -3499,0 -6335,2837 -6335,6336 0,1026 244,1995 677,2853 2,1 2720,2227 8689,2711z"/>
   <path class="fil0" d="M11789 0c-3499,0 -6335,2837 -6335,6336 0,157 5,312 17,466 345,362 1029,895 2601,1263 1598,374 1899,340 4147,1020 2247,680 3149,160 4151,204 456,20 806,-13 1054,-56 448,-868 700,-1853 700,-2897 0,-3499 -2836,-6336 -6335,-6336z"/>
   <path class="fil1" d="M11789 0c-3130,0 -5730,2271 -6243,5255 696,340 5313,2402 12578,1107 0,-9 0,-18 0,-26 0,-3499 -2836,-6336 -6335,-6336z"/>
   <path class="fil2" d="M6547 2777c1,0 3173,1120 6401,1112 2835,-6 4225,412 4923,668 -769,-2633 -3201,-4557 -6082,-4557 -2180,0 -4102,1101 -5242,2777z"/>
   <path class="fil0" d="M17249 3121c-1102,-1868 -3135,-3121 -5460,-3121 -1200,0 -2323,334 -3279,914l0 0c0,0 2646,1491 8739,2207l0 0z"/>
   <path class="fil1" d="M9074 610c1371,661 3527,1336 7148,1200 -1143,-1120 -2707,-1810 -4433,-1810 -972,0 -1892,219 -2715,610z"/>
   <path class="fil3" d="M18124 6336c0,-3010 -2099,-5528 -4914,-6174 82,100 5060,6277 -2642,12390 395,77 803,119 1221,119 3499,0 6335,-2836 6335,-6335z"/>
   <path class="fil4" d="M18110 5931c-4,-68 -9,-136 -15,-203 -4,-39 -9,-77 -13,-115 -7,-62 -14,-123 -23,-184 -6,-40 -12,-79 -18,-119 -10,-60 -21,-119 -32,-178 -8,-39 -15,-78 -23,-117 -13,-60 -27,-120 -42,-180 -9,-36 -17,-72 -26,-107 -19,-73 -40,-145 -62,-217 -6,-21 -12,-44 -19,-65 -28,-90 -58,-180 -90,-268 -14,-37 -29,-74 -43,-112 -20,-52 -40,-104 -61,-155 -18,-42 -36,-84 -55,-126 -20,-45 -40,-90 -61,-135 -20,-44 -41,-87 -63,-130 -20,-42 -42,-83 -63,-124 -23,-44 -47,-88 -71,-132 -21,-38 -43,-75 -64,-112 -27,-45 -53,-91 -81,-136 -19,-30 -38,-59 -57,-89 -114,-179 -237,-351 -368,-517 -16,-19 -30,-39 -46,-58 -41,-51 -84,-101 -126,-150 -18,-20 -35,-40 -52,-60 -44,-50 -89,-99 -134,-147 -17,-17 -34,-35 -50,-52 -48,-50 -97,-99 -146,-148 -13,-12 -25,-23 -38,-35 -306,-293 -640,-555 -999,-782 -2,-1 -4,-2 -5,-3 -72,-45 -144,-89 -218,-131 -4,-2 -8,-5 -11,-7 -532,-304 -1111,-534 -1724,-675 -1,0 -1,0 -1,0 77,95 4488,5569 -1409,11308 895,187 1899,339 3019,430 75,-41 150,-85 224,-129 23,-14 46,-28 69,-42 61,-38 120,-76 179,-115 18,-12 35,-23 52,-34 72,-49 142,-99 212,-151 21,-15 42,-31 63,-47 54,-42 108,-84 160,-127 19,-15 39,-30 58,-46 66,-55 131,-111 195,-169 18,-16 35,-33 53,-49 50,-47 99,-94 148,-142 19,-18 38,-36 56,-55 61,-61 121,-124 179,-187 14,-16 27,-31 41,-46 47,-53 93,-106 138,-160 18,-21 35,-42 53,-63 54,-68 109,-136 161,-206 8,-11 16,-22 24,-32 45,-62 90,-125 133,-188 16,-23 31,-45 46,-68 44,-67 88,-134 130,-202 5,-9 11,-17 16,-26 46,-75 89,-152 132,-230 13,-23 25,-46 38,-69 35,-66 69,-133 102,-200 7,-15 15,-30 23,-46 38,-80 74,-161 109,-243 10,-23 20,-45 29,-69 28,-67 55,-135 81,-204 7,-20 15,-39 22,-58 30,-85 59,-170 86,-256 7,-21 13,-43 20,-64 21,-71 42,-143 61,-215 6,-22 12,-44 17,-67 23,-88 44,-178 62,-268 4,-18 7,-36 11,-54 15,-76 28,-153 41,-230 4,-24 8,-48 11,-72 14,-93 26,-186 36,-280 1,-12 2,-23 3,-35 8,-84 14,-169 19,-254 1,-25 3,-51 4,-76 4,-96 7,-193 7,-290 0,-103 -3,-204 -7,-305 -2,-34 -5,-67 -7,-100z"/>
   <path class="fil5" d="M18110 5931c-4,-68 -9,-136 -15,-203 -4,-39 -9,-77 -13,-115 -7,-62 -14,-123 -23,-184 -6,-40 -12,-79 -18,-119 -10,-60 -21,-119 -32,-178 -8,-39 -15,-78 -23,-117 -13,-60 -27,-120 -42,-180 -9,-36 -17,-72 -26,-107 -19,-73 -40,-145 -62,-217 -6,-21 -12,-44 -19,-65 -28,-90 -58,-180 -90,-268 -14,-37 -29,-74 -43,-112 -20,-52 -40,-104 -61,-155 -18,-42 -36,-84 -55,-126 -20,-45 -40,-90 -61,-135 -20,-44 -41,-87 -63,-130 -20,-42 -42,-83 -63,-124 -23,-44 -47,-88 -71,-132 -21,-38 -43,-75 -64,-112 -27,-45 -53,-91 -81,-136 -19,-30 -38,-59 -57,-89 -114,-179 -237,-351 -368,-517 -16,-19 -30,-39 -46,-58 -41,-51 -84,-101 -126,-150 -18,-20 -35,-40 -52,-60 -44,-50 -89,-99 -134,-147 -17,-17 -34,-35 -50,-52 -48,-50 -97,-99 -146,-148 -13,-12 -25,-23 -38,-35 -306,-293 -640,-555 -999,-782 -2,-1 -4,-2 -5,-3 -72,-45 -144,-89 -218,-131 -4,-2 -8,-5 -11,-7 -532,-304 -1111,-534 -1724,-675 -1,0 -1,0 -1,0 68,83 3472,4307 323,9218 1339,182 2058,-125 2837,-91 454,20 804,-13 1052,-55 10,-20 21,-40 31,-60 34,-67 66,-136 98,-204 16,-37 33,-73 49,-110 33,-75 63,-151 93,-227 12,-31 25,-61 36,-92 40,-108 78,-217 112,-327 4,-12 7,-24 10,-37 30,-97 58,-196 83,-296 9,-38 17,-76 26,-113 17,-76 34,-153 49,-230 8,-43 16,-86 23,-129 13,-74 24,-149 34,-225 6,-43 12,-87 17,-130 9,-81 16,-162 22,-242 3,-39 6,-77 9,-115 6,-120 10,-240 10,-361 0,-103 -3,-204 -7,-305 -2,-34 -5,-67 -7,-100z"/>
   <path class="fil6" d="M18124 6362c0,-9 0,-18 0,-26 0,-103 -3,-204 -7,-305 -2,-34 -5,-67 -7,-100 -4,-68 -9,-136 -15,-203 -4,-39 -9,-77 -13,-115 -7,-62 -14,-123 -23,-184 -6,-40 -12,-79 -18,-119 -10,-60 -21,-119 -32,-178 -8,-39 -15,-78 -23,-117 -13,-60 -27,-120 -42,-180 -9,-36 -17,-72 -26,-107 -19,-73 -40,-145 -62,-217 -6,-21 -12,-44 -19,-65 -28,-90 -58,-180 -90,-268 -14,-37 -29,-74 -43,-112 -20,-52 -40,-104 -61,-155 -18,-42 -36,-84 -55,-126 -20,-45 -40,-90 -61,-135 -20,-44 -41,-87 -63,-130 -20,-42 -42,-83 -63,-124 -23,-44 -47,-88 -71,-132 -21,-38 -43,-75 -64,-112 -27,-45 -53,-91 -81,-136 -19,-30 -38,-59 -57,-89 -114,-179 -237,-351 -368,-517 -16,-19 -30,-39 -46,-58 -41,-51 -84,-101 -126,-150 -18,-20 -35,-40 -52,-60 -44,-50 -89,-99 -134,-147 -17,-17 -34,-35 -50,-52 -48,-50 -97,-99 -146,-148 -13,-12 -25,-23 -38,-35 -306,-293 -640,-555 -999,-782 -2,-1 -4,-2 -5,-3 -72,-45 -144,-89 -218,-131 -4,-2 -8,-5 -11,-7 -532,-304 -1111,-534 -1724,-675 -1,0 -1,0 -1,0 55,68 2329,2889 1459,6592 1072,-52 2225,-173 3455,-392z"/>
   <path class="fil7" d="M17855 4507c-13,-45 -27,-89 -42,-134 -13,-39 -26,-78 -39,-117 -15,-42 -30,-85 -46,-127 -15,-40 -30,-80 -46,-120 -16,-40 -32,-80 -48,-119 -18,-42 -36,-83 -54,-125 -17,-37 -33,-73 -50,-110 -20,-43 -42,-86 -63,-129 -16,-34 -33,-67 -50,-100 -24,-46 -48,-91 -73,-136 -16,-30 -32,-59 -49,-88 -28,-49 -56,-97 -85,-144 -15,-25 -30,-51 -46,-75 -33,-53 -66,-104 -101,-155 -12,-20 -25,-39 -38,-58 -39,-58 -80,-115 -121,-171 -9,-12 -17,-25 -26,-37 -50,-66 -100,-131 -152,-196 -2,-2 -3,-3 -4,-4 -876,-1087 -2105,-1877 -3512,-2200 40,49 1251,1552 1577,3791 1635,126 2556,410 3082,603 -4,-16 -9,-33 -14,-49z"/>
   <path class="fil8" d="M17197 3036c-10,-17 -20,-34 -31,-50 -87,-140 -180,-276 -277,-409 -6,-8 -12,-16 -18,-23 -45,-60 -91,-120 -138,-178 -6,-8 -13,-16 -19,-24 -876,-1081 -2101,-1868 -3504,-2190 32,40 817,1013 1295,2550 823,150 1734,290 2742,409 -17,-29 -33,-57 -50,-85z"/>
   <path class="fil9" d="M15613 1286c-7,-5 -13,-10 -20,-15 -61,-46 -124,-91 -186,-135 -12,-8 -23,-16 -35,-24 -63,-43 -126,-85 -191,-126 -10,-6 -21,-13 -32,-20 -67,-42 -135,-83 -203,-123 -6,-3 -11,-5 -16,-8 -530,-303 -1108,-532 -1720,-673 26,31 513,636 952,1635 628,34 1311,41 2058,13 -191,-187 -394,-362 -607,-524z"/>
   <path class="fil10" d="M5922 3995c0,0 -4079,-644 -4552,203 -474,848 5617,2944 9768,3888 4150,944 8908,1690 10708,1058 1636,-574 -3758,-2338 -3758,-2338l18 -389c0,0 4530,1211 5643,2819 971,1403 -4231,1521 -12659,-366 -6397,-1432 -12084,-3752 -10943,-5025 1201,-1341 5942,-234 5942,-234l-167 384z"/>
   <path class="fil11" d="M18106 6417l-18 389c0,0 5394,1764 3758,2338 -1413,496 -4571,158 -7905,-473 -121,221 -255,462 -408,709 7019,1358 11093,1123 10216,-144 -1113,-1608 -5643,-2819 -5643,-2819z"/>
  </g>
 </g>
</svg>
