<?xml version="1.0" encoding="UTF-8"?>
<!DOCTYPE svg PUBLIC "-//W3C//DTD SVG 1.1//EN" "http://www.w3.org/Graphics/SVG/1.1/DTD/svg11.dtd">
<!-- Creator: CorelDRAW X8 -->
<svg xmlns="http://www.w3.org/2000/svg" xml:space="preserve" width="40px" height="87px" version="1.1" style="shape-rendering:geometricPrecision; text-rendering:geometricPrecision; image-rendering:optimizeQuality; fill-rule:evenodd; clip-rule:evenodd"
viewBox="0 0 2105 4642"
 xmlns:xlink="http://www.w3.org/1999/xlink">
 <defs>
  <style type="text/css">
   <![CDATA[
    .fil6 {fill:#B74A2C;fill-rule:nonzero}
    .fil9 {fill:#B7A697;fill-rule:nonzero}
    .fil4 {fill:#BC7A31;fill-rule:nonzero}
    .fil8 {fill:#D1C6B8;fill-rule:nonzero}
    .fil2 {fill:#DF4426;fill-rule:nonzero}
    .fil11 {fill:#DFF0FF;fill-rule:nonzero}
    .fil5 {fill:#E96025;fill-rule:nonzero}
    .fil3 {fill:#ED9721;fill-rule:nonzero}
    .fil7 {fill:#EEE6DB;fill-rule:nonzero}
    .fil10 {fill:#F2961F;fill-rule:nonzero}
    .fil1 {fill:#F8A710;fill-rule:nonzero}
    .fil0 {fill:#FFDD00;fill-rule:nonzero}
   ]]>
  </style>
 </defs>
 <g id="Camada_x0020_1">
  <metadata id="CorelCorpID_0Corel-Layer"/>
  <g id="_2752939055344">
   <path class="fil0" d="M757 4199c0,0 -277,-857 0,-857 0,0 297,-22 0,857z"/>
   <path class="fil1" d="M758 4058c0,0 -199,-668 0,-668 0,0 212,-20 0,668z"/>
   <path class="fil2" d="M759 3939c0,0 -151,-523 0,-523 0,0 163,-14 0,523z"/>
   <path class="fil0" d="M1340 4199c0,0 -278,-857 0,-857 0,0 297,-22 0,857z"/>
   <path class="fil1" d="M1341 4058c0,0 -200,-668 0,-668 0,0 212,-20 0,668z"/>
   <path class="fil2" d="M1341 3939c0,0 -150,-523 0,-523 0,0 164,-14 0,523z"/>
   <path class="fil0" d="M1050 4642c0,0 -277,-857 0,-857 0,0 297,-22 0,857z"/>
   <path class="fil1" d="M1051 4501c0,0 -200,-668 0,-668 0,0 212,-21 0,668z"/>
   <path class="fil2" d="M1051 4382c0,0 -150,-524 0,-524 0,0 164,-14 0,524z"/>
   <path class="fil3" d="M473 2266c0,0 -364,75 -460,414 -67,234 144,627 336,770 0,0 -137,-571 245,-684l-121 -500z"/>
   <path class="fil4" d="M529 2603l26 0 39 163c-382,113 -245,684 -245,684 0,0 -342,-592 180,-847z"/>
   <path class="fil3" d="M1633 2266c0,0 364,75 460,414 67,234 -145,627 -336,770 0,0 136,-571 -246,-684l122 -500z"/>
   <path class="fil4" d="M1577 2603l-26 0 -40 163c382,113 246,684 246,684 0,0 333,-547 -180,-847z"/>
   <path class="fil5" d="M1396 2997c-107,47 -304,70 -348,74 -43,-4 -240,-27 -347,-74l0 203c0,0 135,54 338,54l0 0c3,0 6,0 9,0 3,0 6,0 9,0l0 0c204,0 339,-54 339,-54l0 -203z"/>
   <path class="fil6" d="M1396 3200l0 -203c-15,7 -31,13 -49,18l-145 72 -49 163c149,-13 243,-50 243,-50z"/>
   <path class="fil7" d="M1676 802c-193,-538 -628,-802 -628,-802 0,0 -435,264 -627,802 -135,376 -150,759 0,1390 150,630 203,823 203,823 0,0 153,85 410,85 256,0 438,-85 438,-85 0,0 54,-193 204,-823 149,-631 134,-1014 0,-1390z"/>
   <polygon class="fil8" points="1342,643 1342,643 1342,643 "/>
   <path class="fil8" d="M1211 3087c159,-24 261,-72 261,-72 0,0 54,-193 204,-823 149,-631 134,-1014 0,-1390 -20,-56 -43,-109 -68,-159l-266 0c1,2 359,810 -131,2444z"/>
   <path class="fil9" d="M1035 2139c-392,0 -624,-59 -640,-63l-27 -133c6,1 635,152 1360,5l-26 127c-255,52 -466,64 -667,64z"/>
   <path class="fil9" d="M1035 1943c-392,0 -662,-59 -678,-63l-13 -78c6,1 683,147 1408,0l-12 74c-255,52 -504,67 -705,67z"/>
   <path class="fil9" d="M1716 927c-752,-186 -1330,-2 -1335,0l24 -79c21,-7 580,-169 1286,-1l25 80z"/>
   <path class="fil10" d="M1470 1349c0,234 -189,423 -422,423 -233,0 -422,-189 -422,-423 0,-233 189,-422 422,-422 233,0 422,189 422,422z"/>
   <path class="fil11" d="M1342 1349c0,163 -131,294 -294,294 -162,0 -294,-131 -294,-294 0,-162 132,-294 294,-294 163,0 294,132 294,294z"/>
   <path class="fil3" d="M1632 694c-207,-465 -584,-694 -584,-694 0,0 -379,230 -586,698 2,-1 432,-169 1170,-4z"/>
   <path class="fil4" d="M1342 643c91,12 188,28 290,51 0,0 0,-1 0,-1 -156,-348 -406,-563 -521,-650 0,0 -1,0 -1,0 -5,-4 -9,-7 -13,-10 0,0 -1,0 -1,-1 -4,-2 -8,-5 -11,-7 -1,-1 -1,-1 -2,-2 -3,-2 -6,-4 -9,-6 0,0 -1,-1 -2,-1 -2,-2 -5,-4 -7,-5 0,0 -1,-1 -2,-1 -2,-2 -3,-3 -5,-4 -1,0 -1,0 -2,-1 -1,-1 -2,-2 -3,-2 -1,0 -1,0 -1,0 -1,-1 -2,-2 -3,-2 0,-1 -1,-1 -1,-1 0,0 162,182 294,643l0 0z"/>
   <path class="fil4" d="M1342 643c0,0 0,0 0,0 0,0 0,0 0,0l0 0z"/>
   <path class="fil3" d="M1068 2266c0,0 -442,492 0,1435 0,0 402,-870 0,-1435z"/>
   <path class="fil4" d="M1068 3701c0,0 402,-870 0,-1435 0,0 190,782 0,1435z"/>
  </g>
 </g>
</svg>
